<svg version="1.1" id="Layer_1" xmlns="http://www.w3.org/2000/svg" xmlns:xlink="http://www.w3.org/1999/xlink" x="0px" y="0px"
	 width="100%" viewBox="0 0 1178 894" enable-background="new 0 0 1178 894" xml:space="preserve">
<path fill="#FFFEFE" opacity="1.000000" stroke="none" 
	d="
M1179.000000,713.000000 
	C1179.000000,773.660278 1179.000000,834.320618 1179.000000,894.985718 
	C786.380920,894.990479 393.761841,894.990479 1.071375,894.990479 
	C1.071375,597.078857 1.071375,299.157745 1.071375,1.118294 
	C393.546570,1.118294 786.093140,1.118294 1179.000000,1.118294 
	C1179.000000,178.027878 1179.000000,355.056000 1178.662598,532.393188 
	C1177.369263,533.836060 1176.333984,534.912598 1175.468872,536.111938 
	C1149.651978,571.896790 1123.855835,607.696777 1098.042480,643.484253 
	C1095.444702,647.085754 1092.757080,650.622375 1089.680420,654.769653 
	C1059.182983,611.564026 1029.130005,568.988037 998.227905,525.209045 
	C998.227905,588.861023 998.227905,650.844910 998.227905,712.790710 
	C1009.888184,712.790710 1021.107300,712.790710 1032.979980,712.790710 
	C1032.979980,686.717590 1032.979980,661.069397 1032.979980,635.421204 
	C1033.307251,635.346985 1033.634521,635.272766 1033.961792,635.198547 
	C1052.232910,660.432495 1070.503906,685.666504 1089.175659,711.453918 
	C1108.741333,683.681458 1127.700439,656.770142 1146.659424,629.858887 
	C1147.137939,630.071167 1147.616455,630.283508 1148.094971,630.495789 
	C1148.094971,657.883728 1148.094971,685.271667 1148.094971,713.000000 
	C1158.758667,713.000000 1168.879272,713.000000 1179.000000,713.000000 
M473.491760,840.400940 
	C473.371643,838.811218 473.251526,837.221497 473.100525,835.029907 
	C472.897400,834.688477 472.694244,834.346985 472.486267,833.364685 
	C471.795135,831.908936 471.104004,830.453186 470.204865,828.559326 
	C469.134583,829.467651 468.325897,830.153931 467.202271,830.758972 
	C467.202271,830.758972 467.000214,831.013855 466.304626,831.024963 
	C465.104126,831.646484 463.903656,832.267944 461.886597,832.804932 
	C460.544098,833.032776 459.201569,833.260620 457.129395,833.276001 
	C456.122223,833.307678 455.115082,833.339355 453.442566,833.078308 
	C452.484833,832.998474 451.527130,832.918640 450.140717,832.312500 
	C448.759186,831.666016 447.377686,831.019531 445.489075,829.720764 
	C445.045410,829.399780 444.601746,829.078857 444.314392,828.798584 
	C444.314392,828.798584 444.223236,828.831909 443.824554,828.115601 
	C443.428192,827.743958 443.031830,827.372253 442.506348,826.307800 
	C438.487885,819.852844 438.247375,813.044739 441.033997,805.435913 
	C444.283020,802.479492 447.095123,798.643494 450.879089,796.764099 
	C457.236145,793.606628 463.376038,796.753906 468.909912,800.159485 
	C475.273865,788.790344 474.207581,786.565430 461.925903,784.394958 
	C461.597961,784.337097 461.271576,784.268982 460.942200,784.221130 
	C445.515106,781.980042 432.352997,789.599609 428.156952,803.199036 
	C423.233887,819.154663 428.705750,834.608276 442.064148,841.665344 
	C445.375122,842.613098 448.686096,843.560852 452.737885,844.789062 
	C453.523590,844.773865 454.309296,844.758606 455.617340,845.049805 
	C457.048828,844.931946 458.480316,844.814087 460.712189,844.849487 
	C461.475708,844.634155 462.239227,844.418823 463.699829,844.329834 
	C466.642212,843.176025 469.584595,842.022278 472.788025,840.876160 
	C472.788025,840.876160 472.896454,840.638611 473.491760,840.400940 
M452.052032,696.832581 
	C452.052032,696.832581 451.918091,697.021606 452.103119,696.097412 
	C452.031982,687.475037 451.960846,678.852722 452.264557,669.686523 
	C453.308807,670.393005 454.353058,671.099426 455.397217,671.805969 
	C456.960846,672.863953 458.454193,674.672058 460.102386,674.826294 
	C463.695953,675.162476 467.412689,674.958069 470.998840,674.429810 
	C477.511017,673.470581 483.949371,672.020874 490.447388,670.950989 
	C496.301147,669.987244 502.439301,670.032166 508.016785,668.261353 
	C519.001526,664.773804 529.830078,660.679810 540.448730,656.187744 
	C549.705078,652.271912 558.343872,648.068054 562.010315,636.747742 
	C565.862854,624.853394 566.313843,614.106384 560.112610,603.145691 
	C556.898193,597.464172 551.945251,594.494934 545.925354,592.975769 
	C533.376526,589.808838 521.814758,594.820740 510.006104,597.565918 
	C504.724976,598.793701 499.628174,601.043701 494.302124,601.788574 
	C488.214844,602.639954 482.225769,603.783569 475.739288,601.402710 
	C470.114716,599.338196 468.714661,594.309998 465.002563,591.080261 
	C460.710419,587.345825 459.854431,582.471863 460.834503,576.979370 
	C462.531769,576.906311 464.229004,576.833191 466.362366,577.372192 
	C470.119049,577.247131 473.919312,577.424988 477.617340,576.892456 
	C480.154297,576.527100 482.549042,575.174133 485.647797,573.946655 
	C486.578735,573.901001 487.509705,573.855286 489.226593,573.925964 
	C490.148804,573.617554 491.071014,573.309143 492.533997,572.682251 
	C493.141022,572.700439 493.748047,572.718628 495.100952,572.875183 
	C495.735016,572.572205 496.369080,572.269226 497.432495,571.664429 
	C497.764740,571.714600 498.096954,571.764771 499.288696,571.927795 
	C500.996460,570.695862 504.712585,575.486145 505.666077,569.630737 
	C515.630127,566.467346 525.666199,563.511963 535.541382,560.091980 
	C550.426147,554.937256 550.345703,554.799744 550.142578,539.244568 
	C550.053223,532.407776 550.127502,525.568848 550.127502,517.744568 
	C546.946411,519.737183 545.149231,520.908997 543.309021,522.008728 
	C516.114258,538.260010 486.323578,543.150879 455.186707,542.063354 
	C454.104279,542.025574 453.042969,541.382874 452.077362,540.088501 
	C452.082458,530.800964 452.176239,521.511780 451.997223,512.227783 
	C451.970337,510.833252 450.667297,509.463348 449.323547,507.565796 
	C442.672516,507.277435 436.023804,506.822235 429.370026,506.728943 
	C396.609680,506.269653 364.230621,509.893219 332.128754,516.194336 
	C330.673859,516.479919 328.357147,518.054993 328.332336,519.075439 
	C328.058960,530.330017 328.160553,541.593689 328.160553,553.339600 
	C331.054810,552.861267 332.515381,552.611694 333.978729,552.379333 
	C357.468475,548.648926 380.911407,544.575867 404.470673,541.353516 
	C414.593994,539.968811 424.958954,540.351318 435.152191,540.844177 
	C434.418854,550.894958 433.685516,560.945679 432.127808,570.886719 
	C430.008606,570.591125 427.890686,570.049377 425.769989,570.038269 
	C405.716705,569.932678 385.650360,570.121216 365.896423,574.049377 
	C354.911530,576.233765 343.795898,578.383423 333.268677,582.063416 
	C323.606445,585.441223 316.680145,592.379517 314.824738,603.410034 
	C313.918243,608.799011 311.761688,613.915588 314.783234,619.333130 
	C315.390625,620.422180 314.547638,622.245972 314.639801,623.714294 
	C314.768585,625.765686 314.678223,628.029175 315.532410,629.789001 
	C316.739746,632.276306 318.497223,634.602905 320.418732,636.617493 
	C326.269165,642.751465 332.764496,647.622986 341.981018,647.042786 
	C346.538757,646.755920 351.129425,647.007568 355.704987,646.981018 
	C357.198486,646.972351 358.713043,646.993958 360.181152,646.765259 
	C374.345276,644.559509 388.479309,642.140625 402.679291,640.202698 
	C405.426514,639.827698 408.850861,640.567261 411.229309,642.005676 
	C421.311951,648.103333 425.499756,658.817200 430.065704,668.622986 
	C423.695129,668.640198 417.324585,668.657410 410.471252,668.261902 
	C408.650360,668.463440 406.829437,668.664978 404.112610,669.044312 
	C382.039978,671.732056 359.917755,674.075500 337.914948,677.247559 
	C326.293518,678.923035 327.977386,677.282654 328.495026,688.686951 
	C328.615479,691.341125 328.511047,694.005493 328.510925,696.665161 
	C328.510620,702.741882 328.510803,708.818604 328.510803,714.731628 
	C352.258392,710.963135 375.046967,707.346802 398.585754,703.843628 
	C410.581848,702.759583 422.577942,701.675598 435.360474,700.520508 
	C435.015106,705.379272 434.731079,709.119995 434.487030,712.863281 
	C434.045288,719.637939 433.430573,726.409851 433.283447,733.191528 
	C433.210907,736.535095 434.298401,739.615417 439.547089,739.071777 
	C444.869202,739.090454 450.199432,739.310059 455.512054,739.094666 
	C487.491302,737.797913 517.867126,729.644958 547.218262,717.288940 
	C548.487244,716.754700 550.200256,715.206177 550.222656,714.100098 
	C550.446289,703.023987 550.358521,691.941589 550.358521,679.633301 
	C519.813599,699.597290 487.395386,705.820496 452.891205,703.422180 
	C452.724854,703.111816 452.466888,702.978271 452.134705,702.213074 
	C452.065430,701.142456 451.996155,700.071838 452.155457,698.536560 
	C452.195679,698.368713 452.235931,698.200867 452.590881,697.833374 
	C452.481842,697.531067 452.372833,697.228821 452.052032,696.832581 
M730.091919,154.090485 
	C729.263672,154.027771 728.435425,153.910233 727.607178,153.910141 
	C655.972351,153.901474 584.337524,153.900055 512.702698,153.916336 
	C511.434021,153.916626 510.165405,154.137009 509.029480,154.242386 
	C509.029480,178.761215 509.029480,202.876907 509.029480,227.133743 
	C520.136169,227.133743 530.995972,227.133743 542.177002,227.133743 
	C542.177002,213.799377 542.177002,200.852890 542.177002,187.435684 
	C544.284119,187.435684 546.070740,187.435669 547.857422,187.435669 
	C609.996460,187.435471 672.135498,187.437759 734.274536,187.427170 
	C737.098389,187.426682 739.922241,187.310043 743.327942,187.865753 
	C751.158936,213.023880 752.264160,238.686493 747.605652,264.414856 
	C731.646606,352.554810 651.610901,412.505157 562.593384,403.415222 
	C560.860229,403.238251 559.109985,403.228058 556.896851,403.116272 
	C556.896851,412.364075 556.896240,420.998108 556.897339,429.632172 
	C556.897583,431.131378 556.379211,432.948090 557.043762,434.048492 
	C557.852478,435.387543 559.598022,436.893402 561.044312,437.009674 
	C627.679016,442.366302 684.377563,421.064636 730.135559,372.331848 
	C760.731873,339.746307 778.046326,300.595947 782.704102,256.134094 
	C786.269958,222.095230 781.695496,189.046707 768.490784,157.351349 
	C767.910400,155.958206 766.169312,154.085846 764.949951,154.071655 
	C753.645020,153.940079 742.335876,154.167923 730.091919,154.090485 
M541.998718,399.165985 
	C541.998718,358.228485 541.998718,317.290985 541.998718,275.816254 
	C577.356445,275.816254 612.210632,275.816254 647.107056,275.816254 
	C647.107056,264.342346 647.107056,253.409576 647.107056,242.521301 
	C600.900879,242.521301 554.999512,242.521301 508.757172,242.521301 
	C508.757172,291.182404 508.757172,339.485016 508.068542,387.693237 
	C507.289337,387.460052 506.460266,387.329559 505.737976,386.979034 
	C440.509033,355.323883 402.704315,284.245605 412.639343,211.973679 
	C424.220795,127.724983 496.083191,64.678352 580.878601,65.288139 
	C633.116699,65.663795 676.882812,86.001282 710.187744,126.264069 
	C718.696472,136.550354 726.817139,141.269684 739.668335,139.561218 
	C745.975647,138.722717 752.486633,139.415894 759.296265,139.415894 
	C728.200012,75.640221 643.177429,13.081709 535.606323,36.698391 
	C434.496796,58.896442 362.357941,157.080185 380.049530,267.826233 
	C395.642426,365.435028 477.343689,424.961853 541.784668,433.514374 
	C541.784668,422.370880 541.784668,411.241272 541.998718,399.165985 
M962.602173,615.936768 
	C962.433899,614.783752 962.240601,613.633667 962.100952,612.477234 
	C957.045959,570.621704 921.701782,535.609741 880.050903,531.204224 
	C823.903320,525.265442 774.848511,572.454529 778.408997,628.980713 
	C781.739563,681.857483 828.152893,720.882324 880.397705,714.902283 
	C927.891541,709.465942 966.082458,667.867371 962.602173,615.936768 
M189.794937,656.090881 
	C195.625107,656.071777 201.475739,655.768372 207.274445,656.186157 
	C209.330490,656.334290 211.978973,657.743042 213.133224,659.419067 
	C222.101440,672.440796 231.647781,685.184814 239.258011,698.983826 
	C245.490768,710.285095 253.082748,715.264221 266.032379,713.392090 
	C273.774872,712.272766 281.811279,713.186646 290.888763,713.186646 
	C276.606934,690.833008 262.973328,669.493958 249.229752,647.982727 
	C266.768341,636.861267 275.172211,620.902161 276.981750,601.229309 
	C278.736755,582.149536 275.020660,564.701416 260.625946,550.851685 
	C247.653122,538.369995 231.389999,533.776062 214.080109,533.148621 
	C194.780670,532.449219 175.439438,532.894958 156.116348,532.877625 
	C154.862869,532.876465 153.609131,533.178101 152.432526,533.329041 
	C152.432526,593.444641 152.432526,653.141968 152.432526,712.743530 
	C164.388245,712.743530 175.938477,712.743530 187.834839,712.743530 
	C187.834839,695.493713 187.802567,678.690674 187.880035,661.888062 
	C187.888687,660.010742 188.520508,658.136230 189.794937,656.090881 
M623.500000,713.187073 
	C638.824829,713.170898 654.168518,713.640320 669.471008,713.047119 
	C714.354187,711.307190 749.829895,679.598267 753.476257,636.634094 
	C755.916199,607.884338 749.667847,581.488403 729.286377,560.011536 
	C711.259277,541.015625 687.906372,533.926758 662.506775,533.096436 
	C643.370239,532.470825 624.199341,532.886963 605.043762,532.868530 
	C603.621826,532.867126 602.199646,533.101379 600.715088,533.231567 
	C600.715088,593.360840 600.715088,653.069275 600.715088,713.187134 
	C608.212280,713.187134 615.356140,713.187134 623.500000,713.187073 
M34.420898,713.173523 
	C36.502396,713.173523 38.583897,713.173523 41.126926,713.173523 
	C41.126926,689.340515 41.126926,666.267944 41.126926,642.818420 
	C59.059883,642.818420 76.519745,642.812439 93.979599,642.820374 
	C107.824944,642.826660 107.824944,642.834229 107.824944,629.188110 
	C107.824944,622.264526 107.824944,615.341003 107.824944,607.943237 
	C85.114677,607.943237 63.212727,607.943237 41.286190,607.943237 
	C41.286190,594.213806 41.286190,580.987976 41.286190,567.117065 
	C66.971809,567.117065 92.334045,567.117065 117.745499,567.117065 
	C117.745499,555.404053 117.745499,544.343506 117.745499,533.233215 
	C80.353600,533.233215 43.323673,533.233215 6.262617,533.233215 
	C6.262617,593.318909 6.262617,653.031433 6.262617,713.172974 
	C15.515336,713.172974 24.475677,713.172974 34.420898,713.173523 
M155.276123,817.719971 
	C153.747360,819.786682 152.218597,821.853455 150.372345,824.349365 
	C140.332428,810.237610 130.696106,796.693237 121.059776,783.148804 
	C120.775398,783.330627 120.491013,783.512512 120.206627,783.694397 
	C120.206627,803.742798 120.206627,823.791199 120.206627,843.956909 
	C124.212578,843.956909 127.883026,843.956909 132.132416,843.956909 
	C132.132416,835.797424 132.132416,828.121094 132.132416,819.103027 
	C138.624756,827.955505 144.262314,835.642517 150.214386,843.758362 
	C156.542450,834.932800 162.353058,826.828918 168.163651,818.725037 
	C168.594666,818.903870 169.025681,819.082703 169.456696,819.261475 
	C169.456696,826.358582 169.328568,833.460022 169.571136,840.548767 
	C169.616470,841.873352 170.990372,844.094421 172.022583,844.265686 
	C175.047699,844.767578 178.209717,844.444397 181.328094,844.444397 
	C181.328094,823.468628 181.328094,803.246765 181.328094,781.745850 
	C172.265427,794.287659 163.997986,805.728882 155.276123,817.719971 
M880.972046,804.500061 
	C880.972046,817.629333 880.972046,830.758606 880.972046,844.039490 
	C882.345703,844.200928 883.313721,844.411316 884.282288,844.413635 
	C894.768982,844.438293 892.654846,844.964050 892.823547,835.988159 
	C892.920898,830.810608 892.841248,825.629639 892.841248,820.450256 
	C893.261963,820.391174 893.682678,820.332092 894.103394,820.272949 
	C899.743103,827.976624 905.382874,835.680298 911.307678,843.773438 
	C917.722168,834.742249 923.698853,826.327454 929.675598,817.912598 
	C930.090027,818.071899 930.504395,818.231140 930.918823,818.390442 
	C930.918823,826.922363 930.918823,835.454346 930.918823,844.130676 
	C935.102173,844.130676 938.694092,844.130676 942.564697,844.130676 
	C942.564697,823.656067 942.564697,803.494202 942.564697,783.332336 
	C942.257385,783.186401 941.950073,783.040527 941.642700,782.894592 
	C931.685181,796.609680 921.727661,810.324768 911.436096,824.499878 
	C901.287964,810.162170 891.572083,796.435059 881.856140,782.707947 
	C881.561157,782.842834 881.266174,782.977722 880.971191,783.112610 
	C880.971191,789.908508 880.971191,796.704346 880.972046,804.500061 
M256.962616,786.925659 
	C256.962616,805.886353 256.962616,824.847046 256.962616,843.725098 
	C266.588837,843.725098 275.854767,844.775391 284.781403,843.482727 
	C298.712067,841.465393 307.676086,829.911621 307.767975,816.165588 
	C307.874756,800.190430 299.561401,788.170898 285.190125,785.769653 
	C276.414612,784.303406 267.278046,784.982727 258.301758,784.782959 
	C257.880493,784.773621 257.440887,785.589600 256.962616,786.925659 
M812.298157,832.465942 
	C812.300293,835.296814 812.389648,838.131104 812.278564,840.957520 
	C812.178589,843.501831 813.160217,844.611450 815.781799,844.472717 
	C818.555725,844.325928 821.343445,844.439758 824.821533,844.439758 
	C824.821533,836.035828 824.821533,828.334351 824.821533,820.122925 
	C832.479980,820.122925 839.442444,820.233459 846.398865,820.074097 
	C849.655396,819.999573 850.828003,821.237000 850.749634,824.456116 
	C850.592651,830.905945 850.703064,837.362366 850.703064,844.081787 
	C854.906067,844.081787 858.616577,844.081787 862.450867,844.081787 
	C862.450867,824.159729 862.450867,804.622803 862.450867,784.999634 
	C858.364502,784.999634 854.654297,784.999634 850.692017,784.999634 
	C850.692017,791.722717 850.805115,798.041077 850.600891,804.349243 
	C850.557800,805.680603 849.390991,808.089600 848.676819,808.114258 
	C840.786865,808.386230 832.884033,808.285339 824.563599,808.285339 
	C824.563599,800.043396 824.563599,792.616699 824.563599,785.076782 
	C820.257690,785.076782 816.410645,785.076782 812.299866,785.076782 
	C812.299866,800.858398 812.299866,816.167847 812.298157,832.465942 
M1031.619507,784.607483 
	C1027.179321,784.607483 1022.739136,784.607483 1018.244507,784.607483 
	C1018.244507,804.821594 1018.244507,824.366333 1018.244507,844.151306 
	C1026.652222,844.151306 1034.820312,844.707642 1042.884399,844.028503 
	C1057.065430,842.834351 1067.791870,831.999817 1068.853760,818.759094 
	C1070.130859,802.834412 1062.072510,789.846680 1047.871460,786.061340 
	C1042.984009,784.758606 1037.671997,785.048645 1031.619507,784.607483 
M511.543427,820.098938 
	C516.829590,820.098938 522.115784,820.098938 527.993408,820.098938 
	C527.993408,828.330200 527.993408,836.060547 527.993408,843.825928 
	C532.297974,843.825928 535.989380,843.825928 539.728088,843.825928 
	C539.728088,823.983032 539.728088,804.591736 539.728088,785.108276 
	C535.680237,785.108276 531.977722,785.108276 527.700806,785.108276 
	C527.700806,793.058472 527.700806,800.610107 527.700806,808.090210 
	C518.873779,808.090210 510.634125,808.090210 501.786438,808.090210 
	C501.786438,800.165955 501.786438,792.602173 501.786438,785.180420 
	C497.441101,785.180420 493.723175,785.180420 490.151672,785.180420 
	C490.151672,805.046387 490.151672,824.436829 490.151672,843.942017 
	C494.150299,843.942017 497.728027,843.942017 501.983582,843.942017 
	C501.983582,835.922729 501.983582,828.210876 501.983582,820.099121 
	C505.288483,820.099121 507.924255,820.099121 511.543427,820.098938 
M733.508606,818.079529 
	C733.508606,815.003784 733.508606,811.928101 733.508606,808.421814 
	C725.883545,808.421814 719.073059,808.482300 712.265381,808.371216 
	C710.886780,808.348755 708.385681,807.799866 708.330261,807.285828 
	C707.977417,804.012451 707.772278,800.597229 708.448364,797.427063 
	C708.618835,796.627747 712.171265,796.236511 714.179871,796.198242 
	C721.595825,796.056885 729.016113,796.142151 736.427979,796.142151 
	C736.427979,791.896301 736.427979,788.504639 736.427979,784.952332 
	C722.819580,784.952332 709.578552,784.952332 696.215088,784.952332 
	C696.215088,804.844971 696.215088,824.371155 696.215088,844.273438 
	C707.241089,844.273438 717.883118,844.271362 728.525146,844.273987 
	C738.428833,844.276489 738.432251,844.278503 737.729736,834.149475 
	C737.709534,833.858887 737.430054,833.586243 736.945251,832.727234 
	C729.821594,832.727234 722.366760,832.729126 714.911926,832.726746 
	C707.865295,832.724426 708.211792,832.701355 707.786926,825.721313 
	C707.487793,820.805298 709.436768,819.648987 713.792053,820.048096 
	C716.931824,820.335815 720.127869,820.265198 723.281738,820.073608 
	C726.644409,819.869446 729.986877,819.334839 733.508606,818.079529 
M373.018921,813.500000 
	C373.018921,823.595581 373.018921,833.691162 373.018921,844.271973 
	C384.316345,844.271973 394.929810,844.268616 405.543304,844.272949 
	C415.388611,844.277039 415.391876,844.280457 414.833771,834.259521 
	C414.817505,833.966919 414.557892,833.687927 414.088348,832.771423 
	C404.861542,832.771423 395.306396,832.771423 385.509644,832.771423 
	C385.509644,828.275635 385.509644,824.421448 385.509644,819.992676 
	C393.960022,819.992676 402.027863,819.992676 410.382996,819.992676 
	C410.382996,816.012695 410.382996,812.608337 410.382996,809.232666 
	C409.736450,808.949951 409.289795,808.590149 408.836853,808.582031 
	C404.346436,808.501404 399.855011,808.455261 395.363770,808.444885 
	C384.315033,808.419373 384.311523,808.428711 385.318024,797.282715 
	C385.342865,797.007507 385.671051,796.759644 385.864044,796.498047 
	C386.174347,796.403381 386.484100,796.228088 386.795044,796.225891 
	C392.785034,796.185120 398.775177,796.144836 404.765289,796.144592 
	C414.743530,796.144104 414.747314,796.155762 413.860168,785.993347 
	C413.835663,785.712402 413.518890,785.456970 413.308044,785.144653 
	C399.979126,785.144653 386.631439,785.144653 373.018982,785.144653 
	C373.018982,794.561218 373.018982,803.530640 373.018921,813.500000 
M241.859283,835.683960 
	C242.186066,832.559204 240.038635,832.745422 237.976730,832.748718 
	C229.533997,832.762085 221.091217,832.754333 212.008667,832.754333 
	C212.008667,830.029968 212.237244,827.891479 211.962128,825.819885 
	C211.347672,821.193176 213.169449,819.726929 217.770187,820.010071 
	C224.023727,820.394836 230.318710,820.105896 236.840652,820.105896 
	C236.840652,816.021362 236.840652,812.489136 236.840652,808.242798 
	C228.469391,808.242798 220.431000,808.242798 212.291321,808.242798 
	C212.156555,806.735535 212.007339,805.924438 212.023438,805.116699 
	C212.236130,794.442505 210.616119,796.292847 220.958344,796.149414 
	C227.532104,796.058228 234.108139,796.132385 240.620697,796.132385 
	C240.620697,791.900696 240.620697,788.483704 240.620697,785.172241 
	C226.931961,785.172241 213.571213,785.172241 199.915237,785.172241 
	C199.915237,804.104614 199.956558,822.560425 199.876709,841.015747 
	C199.862518,844.290100 201.818848,844.295410 204.131607,844.289246 
	C214.283463,844.262268 224.435455,844.277710 234.587387,844.277832 
	C236.839966,844.277832 239.092545,844.277893 241.862396,844.277893 
	C241.862396,841.206909 241.862396,838.913635 241.859283,835.683960 
M982.499695,784.697754 
	C975.419006,784.697754 968.338318,784.697754 961.319824,784.697754 
	C961.319824,804.945007 961.319824,824.359680 961.319824,843.916565 
	C975.238220,843.916565 988.799072,843.916565 1002.632507,843.916565 
	C1002.632507,840.151489 1002.632507,836.747803 1002.632507,832.811707 
	C992.779968,832.811707 983.196899,832.811707 973.332275,832.811707 
	C973.332275,828.390869 973.332275,824.503113 973.332275,819.991150 
	C981.683228,819.991150 989.749329,819.991150 997.991821,819.991150 
	C997.991821,815.933350 997.991821,812.501038 997.991821,808.434570 
	C989.667969,808.434570 981.594055,808.434570 973.356201,808.434570 
	C973.356201,804.063354 973.356201,800.330444 973.356201,796.039795 
	C982.909668,796.039795 992.151672,796.039795 1001.637329,796.039795 
	C1001.637329,792.078064 1001.637329,788.680298 1001.637329,784.697510 
	C995.410217,784.697510 989.454834,784.697510 982.499695,784.697754 
M765.926941,786.297607 
	C753.164001,792.447327 748.755188,803.328491 749.292664,816.629333 
	C749.795349,829.068970 755.770813,838.291931 767.526489,842.807373 
	C777.990601,846.826599 788.242676,846.070435 797.907288,839.238159 
	C796.252441,835.588013 794.773315,832.325562 793.306763,829.090820 
	C779.023926,834.827515 771.852173,834.254211 766.065918,827.154846 
	C760.892822,820.807556 760.212952,810.248108 765.197144,803.310303 
	C772.682068,792.891418 782.168640,794.270569 792.084229,800.302734 
	C793.221924,797.589661 793.898865,795.331726 795.056702,793.355652 
	C797.108215,789.854797 796.075134,788.052551 792.462219,786.646667 
	C783.889038,783.310486 775.333435,782.842651 765.926941,786.297607 
M644.949707,784.620911 
	C640.654785,785.222107 639.799316,788.327576 641.971619,796.154236 
	C644.514343,796.154236 647.186951,796.395447 649.798340,796.098633 
	C653.889954,795.633667 655.307922,797.029358 655.216919,801.279907 
	C654.957336,813.415283 655.111572,825.559937 655.139587,837.700745 
	C655.144409,839.787048 655.328735,841.872864 655.438416,844.128235 
	C659.569641,844.128235 663.148193,844.128235 667.184937,844.128235 
	C667.184937,842.025269 667.185486,840.220703 667.184875,838.416077 
	C667.180908,826.940369 667.136963,815.464478 667.185303,803.989014 
	C667.223694,794.877747 666.616394,796.242676 674.826965,796.148926 
	C676.924744,796.124939 679.023071,796.145264 681.376587,796.145264 
	C681.376587,792.075134 681.376587,788.661011 681.376587,784.619751 
	C669.383606,784.619751 657.627625,784.619751 644.949707,784.620911 
M332.223389,805.566040 
	C332.222992,817.037537 332.132690,828.510681 332.332367,839.978699 
	C332.358246,841.465027 333.671082,843.979614 334.751434,844.195068 
	C337.701904,844.783630 340.846741,844.397644 344.530426,844.397644 
	C344.530426,827.867554 344.530426,812.166809 344.530426,795.987671 
	C349.597351,795.987671 354.018738,795.987671 358.677002,795.987671 
	C358.677002,792.068420 358.677002,788.642761 358.677002,784.936218 
	C345.321960,784.936218 332.103424,784.936218 318.805176,784.936218 
	C318.805176,788.801147 318.805176,792.319946 318.805176,796.149963 
	C320.722504,796.149963 322.205292,796.124390 323.686951,796.154175 
	C332.942169,796.340149 332.126678,794.434631 332.223389,805.566040 
M597.831360,797.500000 
	C597.831360,790.086853 597.831360,782.673767 597.831360,775.342407 
	C593.760071,775.342407 590.541809,775.342407 587.335571,775.342407 
	C587.335571,800.998901 587.335571,826.213928 587.335571,851.637817 
	C590.868652,851.637817 594.086670,851.637817 597.831177,851.637817 
	C597.831177,833.695618 597.831177,816.097839 597.831360,797.500000 
z"/>
<path fill="#BE3835" opacity="1.000000" stroke="none" 
	d="
M1179.000000,712.531372 
	C1168.879272,713.000000 1158.758667,713.000000 1148.094971,713.000000 
	C1148.094971,685.271667 1148.094971,657.883728 1148.094971,630.495789 
	C1147.616455,630.283508 1147.137939,630.071167 1146.659424,629.858887 
	C1127.700439,656.770142 1108.741333,683.681458 1089.175659,711.453918 
	C1070.503906,685.666504 1052.232910,660.432495 1033.961792,635.198547 
	C1033.634521,635.272766 1033.307251,635.346985 1032.979980,635.421204 
	C1032.979980,661.069397 1032.979980,686.717590 1032.979980,712.790710 
	C1021.107300,712.790710 1009.888184,712.790710 998.227905,712.790710 
	C998.227905,650.844910 998.227905,588.861023 998.227905,525.209045 
	C1029.130005,568.988037 1059.182983,611.564026 1089.680420,654.769653 
	C1092.757080,650.622375 1095.444702,647.085754 1098.042480,643.484253 
	C1123.855835,607.696777 1149.651978,571.896790 1175.468872,536.111938 
	C1176.333984,534.912598 1177.369263,533.836060 1178.662598,532.851196 
	C1179.000000,592.687561 1179.000000,652.375122 1179.000000,712.531372 
z"/>
<path fill="#BE3836" opacity="1.000000" stroke="none" 
	d="
M541.784668,400.111694 
	C541.784668,411.241272 541.784668,422.370880 541.784668,433.514374 
	C477.343689,424.961853 395.642426,365.435028 380.049530,267.826233 
	C362.357941,157.080185 434.496796,58.896442 535.606323,36.698391 
	C643.177429,13.081709 728.200012,75.640221 759.296265,139.415894 
	C752.486633,139.415894 745.975647,138.722717 739.668335,139.561218 
	C726.817139,141.269684 718.696472,136.550354 710.187744,126.264069 
	C676.882812,86.001282 633.116699,65.663795 580.878601,65.288139 
	C496.083191,64.678352 424.220795,127.724983 412.639343,211.973679 
	C402.704315,284.245605 440.509033,355.323883 505.737976,386.979034 
	C506.460266,387.329559 507.289337,387.460052 508.680939,387.998047 
	C520.123779,392.239166 530.954224,396.175415 541.784668,400.111694 
z"/>
<path fill="#BE3836" opacity="1.000000" stroke="none" 
	d="
M962.634277,616.398560 
	C966.082458,667.867371 927.891541,709.465942 880.397705,714.902283 
	C828.152893,720.882324 781.739563,681.857483 778.408997,628.980713 
	C774.848511,572.454529 823.903320,525.265442 880.050903,531.204224 
	C921.701782,535.609741 957.045959,570.621704 962.100952,612.477234 
	C962.240601,613.633667 962.433899,614.783752 962.634277,616.398560 
M911.674622,662.150879 
	C922.975708,648.202087 927.133301,632.354797 925.045837,614.539368 
	C920.405151,574.933655 876.558594,552.503052 842.717651,573.235596 
	C820.909119,586.596558 812.452881,607.337463 816.131531,632.323853 
	C819.433838,654.754944 832.195801,670.733093 853.904907,677.816101 
	C875.812683,684.963867 895.301453,679.847900 911.674622,662.150879 
z"/>
<path fill="#BE3836" opacity="1.000000" stroke="none" 
	d="
M189.329147,656.175659 
	C188.520508,658.136230 187.888687,660.010742 187.880035,661.888062 
	C187.802567,678.690674 187.834839,695.493713 187.834839,712.743530 
	C175.938477,712.743530 164.388245,712.743530 152.432526,712.743530 
	C152.432526,653.141968 152.432526,593.444641 152.432526,533.329041 
	C153.609131,533.178101 154.862869,532.876465 156.116348,532.877625 
	C175.439438,532.894958 194.780670,532.449219 214.080109,533.148621 
	C231.389999,533.776062 247.653122,538.369995 260.625946,550.851685 
	C275.020660,564.701416 278.736755,582.149536 276.981750,601.229309 
	C275.172211,620.902161 266.768341,636.861267 249.229752,647.982727 
	C262.973328,669.493958 276.606934,690.833008 290.888763,713.186646 
	C281.811279,713.186646 273.774872,712.272766 266.032379,713.392090 
	C253.082748,715.264221 245.490768,710.285095 239.258011,698.983826 
	C231.647781,685.184814 222.101440,672.440796 213.133224,659.419067 
	C211.978973,657.743042 209.330490,656.334290 207.274445,656.186157 
	C201.475739,655.768372 195.625107,656.071777 189.329147,656.175659 
M223.965317,610.075623 
	C223.965317,610.075623 223.891800,610.042969 223.937820,609.509644 
	C223.697998,609.267090 223.458191,609.024597 223.131302,608.359253 
	C223.131302,608.359253 222.949387,607.967834 223.047928,607.382019 
	C222.740707,606.909302 222.433487,606.436646 222.033890,605.239807 
	C224.677505,602.933777 227.141220,600.370056 230.000870,598.373474 
	C236.674683,593.713928 243.538864,589.327087 250.325928,584.829712 
	C240.852646,584.531372 231.864899,584.945496 222.963867,586.055115 
	C217.700806,586.711182 214.962753,585.552490 214.215881,579.887390 
	C213.567307,574.967896 211.994843,570.165344 210.757156,565.329956 
	C209.677155,561.110535 208.494553,556.917297 207.357285,552.712524 
	C204.098358,562.005310 201.412262,571.084961 199.654053,580.340881 
	C198.657181,585.588745 196.325500,586.576904 191.523117,586.046814 
	C182.377426,585.037170 173.169800,584.588501 163.987900,583.906860 
	C171.699799,590.197327 179.571533,595.677795 187.705734,600.736389 
	C191.195023,602.906311 192.611374,604.485962 190.508667,608.886902 
	C186.461792,617.356628 183.331161,626.264160 179.820557,634.990112 
	C180.098511,635.159363 180.376465,635.328613 180.654419,635.497864 
	C189.359100,628.647400 198.063782,621.796936 206.902863,614.840698 
	C214.122498,620.404724 221.044739,625.739563 228.215546,631.689087 
	C229.934830,633.015320 231.654114,634.341492 233.373398,635.667664 
	C233.717377,635.425720 234.061356,635.183777 234.405334,634.941895 
	C233.408478,632.855103 232.411621,630.768372 231.318329,628.278870 
	C231.318329,628.278870 231.083527,627.937805 231.129181,627.289185 
	C230.744904,626.553589 230.360641,625.818054 230.005951,625.017517 
	C230.005951,625.017517 229.940872,624.988403 230.023407,624.331543 
	C229.532455,623.385437 229.041519,622.439331 228.427231,620.943237 
	C228.262253,620.606506 228.097290,620.269775 227.996750,619.419495 
	C227.791534,619.156250 227.586319,618.893066 227.255249,618.061279 
	C227.097046,617.708008 226.938843,617.354675 226.820267,616.359680 
	C226.230484,615.244080 225.640701,614.128540 224.925323,612.292175 
	C224.709381,611.860168 224.493439,611.428223 224.415405,610.648926 
	C224.363068,610.369202 224.197586,610.200012 223.965317,610.075623 
z"/>
<path fill="#BF3835" opacity="1.000000" stroke="none" 
	d="
M623.000000,713.187134 
	C615.356140,713.187134 608.212280,713.187134 600.715088,713.187134 
	C600.715088,653.069275 600.715088,593.360840 600.715088,533.231567 
	C602.199646,533.101379 603.621826,532.867126 605.043762,532.868530 
	C624.199341,532.886963 643.370239,532.470825 662.506775,533.096436 
	C687.906372,533.926758 711.259277,541.015625 729.286377,560.011536 
	C749.667847,581.488403 755.916199,607.884338 753.476257,636.634094 
	C749.829895,679.598267 714.354187,711.307190 669.471008,713.047119 
	C654.168518,713.640320 638.824829,713.170898 623.000000,713.187134 
M688.832031,572.278076 
	C688.832031,572.278076 688.766296,572.408875 688.612305,571.695984 
	C685.567749,570.137146 682.593933,567.411621 679.466309,567.221802 
	C666.060425,566.407959 652.609558,566.324768 639.173645,566.046326 
	C638.455566,566.031433 637.724121,566.664307 637.000000,567.000000 
	C637.000000,567.000000 636.992859,566.997498 636.529663,567.204773 
	C636.362061,567.490540 636.194519,567.776306 635.990906,568.018005 
	C635.990906,568.018005 636.047302,568.024841 635.284790,568.154175 
	C634.856506,572.886047 634.076233,577.616455 634.057556,582.349976 
	C633.942810,611.498413 634.004333,640.647522 633.989441,669.796448 
	C633.988464,671.620361 634.181152,673.545410 633.681335,675.246460 
	C632.693176,678.610107 634.517578,678.994446 637.004822,679.002441 
	C637.004822,679.002441 637.017029,678.972229 637.141113,679.726990 
	C637.786560,680.128296 638.442139,680.893494 639.075928,680.875732 
	C647.143127,680.650513 655.223450,680.530090 663.266785,679.931458 
	C669.131531,679.494995 674.975830,678.548157 680.763062,677.472412 
	C682.204590,677.204468 683.390076,675.558899 684.817383,674.545349 
	C684.817383,674.545349 684.708679,674.605347 685.423462,674.851807 
	C686.287109,674.271179 687.150696,673.690552 688.581604,672.720032 
	C700.808960,666.521423 710.310120,657.558960 713.912964,644.094971 
	C720.673340,618.831421 717.988464,595.629089 696.892700,576.558716 
	C694.161865,575.153076 691.431030,573.747375 688.832031,572.278076 
z"/>
<path fill="#BD3937" opacity="1.000000" stroke="none" 
	d="
M731.027954,154.291428 
	C742.335876,154.167923 753.645020,153.940079 764.949951,154.071655 
	C766.169312,154.085846 767.910400,155.958206 768.490784,157.351349 
	C781.695496,189.046707 786.269958,222.095230 782.704102,256.134094 
	C778.046326,300.595947 760.731873,339.746307 730.135559,372.331848 
	C684.377563,421.064636 627.679016,442.366302 561.044312,437.009674 
	C559.598022,436.893402 557.852478,435.387543 557.043762,434.048492 
	C556.379211,432.948090 556.897583,431.131378 556.897339,429.632172 
	C556.896240,420.998108 556.896851,412.364075 556.896851,403.116272 
	C559.109985,403.228058 560.860229,403.238251 562.593384,403.415222 
	C651.610901,412.505157 731.646606,352.554810 747.605652,264.414856 
	C752.264160,238.686493 751.158936,213.023880 743.066589,187.211243 
	C741.814026,183.268127 741.001648,179.912354 739.795837,176.704437 
	C736.973511,169.195740 733.962524,161.757935 731.027954,154.291428 
z"/>
<path fill="#BE3735" opacity="1.000000" stroke="none" 
	d="
M33.928459,713.173218 
	C24.475677,713.172974 15.515336,713.172974 6.262617,713.172974 
	C6.262617,653.031433 6.262617,593.318909 6.262617,533.233215 
	C43.323673,533.233215 80.353600,533.233215 117.745499,533.233215 
	C117.745499,544.343506 117.745499,555.404053 117.745499,567.117065 
	C92.334045,567.117065 66.971809,567.117065 41.286190,567.117065 
	C41.286190,580.987976 41.286190,594.213806 41.286190,607.943237 
	C63.212727,607.943237 85.114677,607.943237 107.824944,607.943237 
	C107.824944,615.341003 107.824944,622.264526 107.824944,629.188110 
	C107.824944,642.834229 107.824944,642.826660 93.979599,642.820374 
	C76.519745,642.812439 59.059883,642.818420 41.126926,642.818420 
	C41.126926,666.267944 41.126926,689.340515 41.126926,713.173523 
	C38.583897,713.173523 36.502396,713.173523 33.928459,713.173218 
z"/>
<path fill="#020101" opacity="1.000000" stroke="none" 
	d="
M730.559937,154.190948 
	C733.962524,161.757935 736.973511,169.195740 739.795837,176.704437 
	C741.001648,179.912354 741.814026,183.268127 742.775635,186.902115 
	C739.922241,187.310043 737.098389,187.426682 734.274536,187.427170 
	C672.135498,187.437759 609.996460,187.435471 547.857422,187.435669 
	C546.070740,187.435669 544.284119,187.435684 542.177002,187.435684 
	C542.177002,200.852890 542.177002,213.799377 542.177002,227.133743 
	C530.995972,227.133743 520.136169,227.133743 509.029480,227.133743 
	C509.029480,202.876907 509.029480,178.761215 509.029480,154.242386 
	C510.165405,154.137009 511.434021,153.916626 512.702698,153.916336 
	C584.337524,153.900055 655.972351,153.901474 727.607178,153.910141 
	C728.435425,153.910233 729.263672,154.027771 730.559937,154.190948 
z"/>
<path fill="#030202" opacity="1.000000" stroke="none" 
	d="
M541.891724,399.638855 
	C530.954224,396.175415 520.123779,392.239166 509.025269,388.045258 
	C508.757172,339.485016 508.757172,291.182404 508.757172,242.521301 
	C554.999512,242.521301 600.900879,242.521301 647.107056,242.521301 
	C647.107056,253.409576 647.107056,264.342346 647.107056,275.816254 
	C612.210632,275.816254 577.356445,275.816254 541.998718,275.816254 
	C541.998718,317.290985 541.998718,358.228485 541.891724,399.638855 
z"/>
<path fill="#F4F4F4" opacity="1.000000" stroke="none" 
	d="
M460.009338,577.188721 
	C459.854431,582.471863 460.710419,587.345825 465.002563,591.080261 
	C468.714661,594.309998 470.114716,599.338196 475.739288,601.402710 
	C482.225769,603.783569 488.214844,602.639954 494.302124,601.788574 
	C499.628174,601.043701 504.724976,598.793701 510.006104,597.565918 
	C521.814758,594.820740 533.376526,589.808838 545.925354,592.975769 
	C551.945251,594.494934 556.898193,597.464172 560.112610,603.145691 
	C566.313843,614.106384 565.862854,624.853394 562.010315,636.747742 
	C558.343872,648.068054 549.705078,652.271912 540.448730,656.187744 
	C529.830078,660.679810 519.001526,664.773804 508.016785,668.261353 
	C502.439301,670.032166 496.301147,669.987244 490.447388,670.950989 
	C483.949371,672.020874 477.511017,673.470581 470.998840,674.429810 
	C467.412689,674.958069 463.695953,675.162476 460.102386,674.826294 
	C458.454193,674.672058 456.960846,672.863953 455.397217,671.805969 
	C454.353058,671.099426 453.308807,670.393005 451.706970,669.858459 
	C449.101379,669.775757 447.053406,669.521179 444.546753,669.181885 
	C439.721802,668.889893 435.355591,668.682556 430.989349,668.475220 
	C425.499756,658.817200 421.311951,648.103333 411.229309,642.005676 
	C408.850861,640.567261 405.426514,639.827698 402.679291,640.202698 
	C388.479309,642.140625 374.345276,644.559509 360.181152,646.765259 
	C358.713043,646.993958 357.198486,646.972351 355.704987,646.981018 
	C351.129425,647.007568 346.538757,646.755920 341.981018,647.042786 
	C332.764496,647.622986 326.269165,642.751465 320.418732,636.617493 
	C318.497223,634.602905 316.739746,632.276306 315.532410,629.789001 
	C314.678223,628.029175 314.768585,625.765686 314.639801,623.714294 
	C314.547638,622.245972 315.390625,620.422180 314.783234,619.333130 
	C311.761688,613.915588 313.918243,608.799011 314.824738,603.410034 
	C316.680145,592.379517 323.606445,585.441223 333.268677,582.063416 
	C343.795898,578.383423 354.911530,576.233765 365.896423,574.049377 
	C385.650360,570.121216 405.716705,569.932678 425.769989,570.038269 
	C427.890686,570.049377 430.008606,570.591125 432.662964,571.280762 
	C434.146667,573.352417 435.095184,575.029907 436.497375,576.820435 
	C444.637177,577.018494 452.323242,577.103638 460.009338,577.188721 
M433.003510,644.874084 
	C433.820892,647.643677 430.850220,651.809143 435.817017,653.491699 
	C435.556061,653.959473 435.295105,654.427185 434.574921,655.221436 
	C434.729401,655.818298 434.883881,656.415100 435.582733,657.368713 
	C438.727600,657.586487 441.872467,657.804199 445.008820,658.789429 
	C444.826538,663.883545 448.501221,662.326355 451.246765,662.213135 
	C451.817474,663.514587 452.322479,664.666199 452.796600,665.747314 
	C455.028900,665.475037 456.982025,665.243164 458.933441,664.997864 
	C468.340149,663.815125 477.782745,662.856323 487.140259,661.364319 
	C493.468170,660.355347 499.698669,658.684998 505.930450,657.139771 
	C510.885406,655.911133 515.708984,654.064270 520.709900,653.127808 
	C530.565674,651.282349 538.911926,646.637878 546.376770,640.214294 
	C547.025513,639.656067 546.812622,638.096741 547.330505,636.347839 
	C548.206604,634.980042 549.814636,633.626953 549.842529,632.242004 
	C550.054993,621.693848 549.958862,611.139465 549.958862,599.672180 
	C547.638245,600.819092 546.236877,601.517944 544.830078,602.205627 
	C542.226624,603.478333 539.619995,604.744568 536.886047,605.300110 
	C534.995667,604.677612 532.889587,603.176758 531.250977,603.579285 
	C522.502319,605.728088 513.940979,608.649719 505.178528,610.729736 
	C496.290161,612.839661 487.562225,614.802917 478.012756,614.425781 
	C466.327972,613.964294 461.533905,606.496094 455.924011,598.818237 
	C455.027924,597.591858 453.346802,596.939026 452.011292,595.174866 
	C453.239227,589.297852 449.035187,588.729004 444.983948,587.207275 
	C444.298553,586.188354 443.822998,584.601318 442.888733,584.256348 
	C440.001312,583.190002 436.962036,582.044922 433.940491,581.918884 
	C422.675476,581.449036 411.366272,580.784424 400.126465,581.314270 
	C388.610413,581.857178 377.180145,584.384094 365.667847,584.794922 
	C355.539764,585.156433 346.722931,589.188599 337.563141,592.382202 
	C336.032776,592.915771 335.181458,595.396912 333.215607,597.008484 
	C329.767914,597.173523 328.858795,599.140076 328.943115,602.346680 
	C329.118195,609.004089 328.998474,615.669250 328.999451,622.331238 
	C329.000000,626.077881 328.999512,629.824524 328.999512,633.969849 
	C333.243896,633.214172 336.626221,632.611938 340.015594,632.787048 
	C340.771729,637.159241 344.462830,637.013428 347.372406,636.881042 
	C353.631317,636.596191 359.864258,635.696533 366.101349,634.991211 
	C372.003143,634.323853 378.326965,634.697632 383.697113,632.624268 
	C392.688171,629.152832 401.820526,629.310974 411.027863,629.037842 
	C416.921326,628.863037 421.269043,632.015747 425.106415,636.155762 
	C427.624573,638.872498 430.351288,641.395935 433.003510,644.874084 
z"/>
<path fill="#BE3836" opacity="1.000000" stroke="none" 
	d="
M435.214142,539.930969 
	C424.958954,540.351318 414.593994,539.968811 404.470673,541.353516 
	C380.911407,544.575867 357.468475,548.648926 333.978729,552.379333 
	C332.515381,552.611694 331.054810,552.861267 328.160553,553.339600 
	C328.160553,541.593689 328.058960,530.330017 328.332336,519.075439 
	C328.357147,518.054993 330.673859,516.479919 332.128754,516.194336 
	C364.230621,509.893219 396.609680,506.269653 429.370026,506.728943 
	C436.023804,506.822235 442.672516,507.277435 449.720062,508.231018 
	C450.424805,517.337158 450.818481,525.776184 451.012177,534.219788 
	C451.148560,540.166199 450.301941,540.649719 444.402924,539.956970 
	C441.380646,539.601990 438.279602,539.918152 435.214142,539.930969 
z"/>
<path fill="#262F60" opacity="1.000000" stroke="none" 
	d="
M430.527527,668.549072 
	C435.355591,668.682556 439.721802,668.889893 444.565308,669.552246 
	C445.186676,670.476685 445.290436,671.339111 445.480804,671.358643 
	C451.711304,671.998901 451.035980,676.460266 451.064728,680.851074 
	C451.100037,686.242859 451.612122,691.631592 451.918091,697.021606 
	C451.918091,697.021606 452.052032,696.832581 452.065430,697.157166 
	C452.144623,697.665466 452.210419,697.849182 452.276215,698.032959 
	C452.235931,698.200867 452.195679,698.368713 451.676025,698.845825 
	C448.666443,703.401611 444.765778,702.174744 441.151794,701.501953 
	C437.768402,700.871948 434.436462,699.070007 431.117645,699.156494 
	C421.127106,699.416748 411.146881,700.263672 401.183533,701.123657 
	C400.001343,701.225708 398.948395,702.825195 397.835571,703.730530 
	C375.046967,707.346802 352.258392,710.963135 328.510803,714.731628 
	C328.510803,708.818604 328.510620,702.741882 328.510925,696.665161 
	C328.511047,694.005493 328.615479,691.341125 328.495026,688.686951 
	C327.977386,677.282654 326.293518,678.923035 337.914948,677.247559 
	C359.917755,674.075500 382.039978,671.732056 404.983215,669.023071 
	C407.553894,668.892700 409.253937,668.783630 410.954010,668.674561 
	C417.324585,668.657410 423.695129,668.640198 430.527527,668.549072 
M441.519287,670.413269 
	C441.519287,670.413269 441.589478,670.527283 441.519287,670.413269 
z"/>
<path fill="#273061" opacity="1.000000" stroke="none" 
	d="
M453.022858,703.863342 
	C487.395386,705.820496 519.813599,699.597290 550.358521,679.633301 
	C550.358521,691.941589 550.446289,703.023987 550.222656,714.100098 
	C550.200256,715.206177 548.487244,716.754700 547.218262,717.288940 
	C517.867126,729.644958 487.491302,737.797913 455.512054,739.094666 
	C450.199432,739.310059 444.869202,739.090454 439.115143,738.513550 
	C438.538055,735.226318 437.392303,732.005188 438.444672,729.865051 
	C441.079224,724.507385 444.936157,719.765686 447.857788,714.528748 
	C449.656342,711.304871 450.636841,707.624695 452.247528,704.089966 
	C452.681213,703.974854 452.852051,703.919128 453.022858,703.863342 
z"/>
<path fill="#BE3936" opacity="1.000000" stroke="none" 
	d="
M460.421936,577.084106 
	C452.323242,577.103638 444.637177,577.018494 436.476013,576.434204 
	C436.392303,567.346252 442.929169,561.869446 446.584808,554.929749 
	C448.906799,550.521851 452.892517,546.703369 451.971802,541.022095 
	C453.042969,541.382874 454.104279,542.025574 455.186707,542.063354 
	C486.323578,543.150879 516.114258,538.260010 543.309021,522.008728 
	C545.149231,520.908997 546.946411,519.737183 550.127502,517.744568 
	C550.127502,525.568848 550.053223,532.407776 550.142578,539.244568 
	C550.345703,554.799744 550.426147,554.937256 535.541382,560.091980 
	C525.666199,563.511963 515.630127,566.467346 504.956421,569.774414 
	C502.307587,570.550293 500.368378,571.182556 498.429199,571.814819 
	C498.096954,571.764771 497.764740,571.714600 496.856018,571.758301 
	C495.638062,572.146973 494.996552,572.441833 494.355042,572.736755 
	C493.748047,572.718628 493.141022,572.700439 491.890839,572.768921 
	C490.311981,573.173584 489.376312,573.491577 488.440643,573.809570 
	C487.509705,573.855286 486.578735,573.901001 484.919312,574.014343 
	C478.102631,574.974731 472.014465,575.867432 465.926270,576.760132 
	C464.229004,576.833191 462.531769,576.906311 460.421936,577.084106 
z"/>
<path fill="#BB3F3F" opacity="1.000000" stroke="none" 
	d="
M155.503342,817.445068 
	C163.997986,805.728882 172.265427,794.287659 181.328094,781.745850 
	C181.328094,803.246765 181.328094,823.468628 181.328094,844.444397 
	C178.209717,844.444397 175.047699,844.767578 172.022583,844.265686 
	C170.990372,844.094421 169.616470,841.873352 169.571136,840.548767 
	C169.328568,833.460022 169.456696,826.358582 169.456696,819.261475 
	C169.025681,819.082703 168.594666,818.903870 168.163651,818.725037 
	C162.353058,826.828918 156.542450,834.932800 150.214386,843.758362 
	C144.262314,835.642517 138.624756,827.955505 132.132416,819.103027 
	C132.132416,828.121094 132.132416,835.797424 132.132416,843.956909 
	C127.883026,843.956909 124.212578,843.956909 120.206627,843.956909 
	C120.206627,823.791199 120.206627,803.742798 120.206627,783.694397 
	C120.491013,783.512512 120.775398,783.330627 121.059776,783.148804 
	C130.696106,796.693237 140.332428,810.237610 150.372345,824.349365 
	C152.218597,821.853455 153.747360,819.786682 155.503342,817.445068 
z"/>
<path fill="#BB3D3C" opacity="1.000000" stroke="none" 
	d="
M880.971619,804.000122 
	C880.971191,796.704346 880.971191,789.908508 880.971191,783.112610 
	C881.266174,782.977722 881.561157,782.842834 881.856140,782.707947 
	C891.572083,796.435059 901.287964,810.162170 911.436096,824.499878 
	C921.727661,810.324768 931.685181,796.609680 941.642700,782.894592 
	C941.950073,783.040527 942.257385,783.186401 942.564697,783.332336 
	C942.564697,803.494202 942.564697,823.656067 942.564697,844.130676 
	C938.694092,844.130676 935.102173,844.130676 930.918823,844.130676 
	C930.918823,835.454346 930.918823,826.922363 930.918823,818.390442 
	C930.504395,818.231140 930.090027,818.071899 929.675598,817.912598 
	C923.698853,826.327454 917.722168,834.742249 911.307678,843.773438 
	C905.382874,835.680298 899.743103,827.976624 894.103394,820.272949 
	C893.682678,820.332092 893.261963,820.391174 892.841248,820.450256 
	C892.841248,825.629639 892.920898,830.810608 892.823547,835.988159 
	C892.654846,844.964050 894.768982,844.438293 884.282288,844.413635 
	C883.313721,844.411316 882.345703,844.200928 880.972046,844.039490 
	C880.972046,830.758606 880.972046,817.629333 880.971619,804.000122 
z"/>
<path fill="#BB3B3A" opacity="1.000000" stroke="none" 
	d="
M256.986206,786.473389 
	C257.440887,785.589600 257.880493,784.773621 258.301758,784.782959 
	C267.278046,784.982727 276.414612,784.303406 285.190125,785.769653 
	C299.561401,788.170898 307.874756,800.190430 307.767975,816.165588 
	C307.676086,829.911621 298.712067,841.465393 284.781403,843.482727 
	C275.854767,844.775391 266.588837,843.725098 256.962616,843.725098 
	C256.962616,824.847046 256.962616,805.886353 256.986206,786.473389 
M275.447388,796.125732 
	C273.501282,796.125732 271.555145,796.125732 269.444763,796.125732 
	C269.444763,808.627319 269.444763,820.595276 269.444763,832.531921 
	C286.318695,833.582397 294.645935,828.082458 295.195618,815.833252 
	C295.756042,803.344116 289.052673,796.329407 275.447388,796.125732 
z"/>
<path fill="#BB3F3F" opacity="1.000000" stroke="none" 
	d="
M812.299011,831.971619 
	C812.299866,816.167847 812.299866,800.858398 812.299866,785.076782 
	C816.410645,785.076782 820.257690,785.076782 824.563599,785.076782 
	C824.563599,792.616699 824.563599,800.043396 824.563599,808.285339 
	C832.884033,808.285339 840.786865,808.386230 848.676819,808.114258 
	C849.390991,808.089600 850.557800,805.680603 850.600891,804.349243 
	C850.805115,798.041077 850.692017,791.722717 850.692017,784.999634 
	C854.654297,784.999634 858.364502,784.999634 862.450867,784.999634 
	C862.450867,804.622803 862.450867,824.159729 862.450867,844.081787 
	C858.616577,844.081787 854.906067,844.081787 850.703064,844.081787 
	C850.703064,837.362366 850.592651,830.905945 850.749634,824.456116 
	C850.828003,821.237000 849.655396,819.999573 846.398865,820.074097 
	C839.442444,820.233459 832.479980,820.122925 824.821533,820.122925 
	C824.821533,828.334351 824.821533,836.035828 824.821533,844.439758 
	C821.343445,844.439758 818.555725,844.325928 815.781799,844.472717 
	C813.160217,844.611450 812.178589,843.501831 812.278564,840.957520 
	C812.389648,838.131104 812.300293,835.296814 812.299011,831.971619 
z"/>
<path fill="#BA3C3B" opacity="1.000000" stroke="none" 
	d="
M1032.086670,784.609253 
	C1037.671997,785.048645 1042.984009,784.758606 1047.871460,786.061340 
	C1062.072510,789.846680 1070.130859,802.834412 1068.853760,818.759094 
	C1067.791870,831.999817 1057.065430,842.834351 1042.884399,844.028503 
	C1034.820312,844.707642 1026.652222,844.151306 1018.244507,844.151306 
	C1018.244507,824.366333 1018.244507,804.821594 1018.244507,784.607483 
	C1022.739136,784.607483 1027.179321,784.607483 1032.086670,784.609253 
M1056.000122,809.663208 
	C1052.776367,798.491760 1042.926270,793.575562 1030.018311,797.009949 
	C1030.018311,802.859131 1030.018311,808.823364 1030.018311,814.787598 
	C1030.018311,820.689453 1030.018311,826.591370 1030.018311,832.370422 
	C1049.057983,834.247009 1057.985229,826.460449 1056.000122,809.663208 
z"/>
<path fill="#BA3C3B" opacity="1.000000" stroke="none" 
	d="
M511.051758,820.098999 
	C507.924255,820.099121 505.288483,820.099121 501.983582,820.099121 
	C501.983582,828.210876 501.983582,835.922729 501.983582,843.942017 
	C497.728027,843.942017 494.150299,843.942017 490.151672,843.942017 
	C490.151672,824.436829 490.151672,805.046387 490.151672,785.180420 
	C493.723175,785.180420 497.441101,785.180420 501.786438,785.180420 
	C501.786438,792.602173 501.786438,800.165955 501.786438,808.090210 
	C510.634125,808.090210 518.873779,808.090210 527.700806,808.090210 
	C527.700806,800.610107 527.700806,793.058472 527.700806,785.108276 
	C531.977722,785.108276 535.680237,785.108276 539.728088,785.108276 
	C539.728088,804.591736 539.728088,823.983032 539.728088,843.825928 
	C535.989380,843.825928 532.297974,843.825928 527.993408,843.825928 
	C527.993408,836.060547 527.993408,828.330200 527.993408,820.098938 
	C522.115784,820.098938 516.829590,820.098938 511.051758,820.098999 
z"/>
<path fill="#BB3B3A" opacity="1.000000" stroke="none" 
	d="
M733.423401,818.511963 
	C729.986877,819.334839 726.644409,819.869446 723.281738,820.073608 
	C720.127869,820.265198 716.931824,820.335815 713.792053,820.048096 
	C709.436768,819.648987 707.487793,820.805298 707.786926,825.721313 
	C708.211792,832.701355 707.865295,832.724426 714.911926,832.726746 
	C722.366760,832.729126 729.821594,832.727234 736.945251,832.727234 
	C737.430054,833.586243 737.709534,833.858887 737.729736,834.149475 
	C738.432251,844.278503 738.428833,844.276489 728.525146,844.273987 
	C717.883118,844.271362 707.241089,844.273438 696.215088,844.273438 
	C696.215088,824.371155 696.215088,804.844971 696.215088,784.952332 
	C709.578552,784.952332 722.819580,784.952332 736.427979,784.952332 
	C736.427979,788.504639 736.427979,791.896301 736.427979,796.142151 
	C729.016113,796.142151 721.595825,796.056885 714.179871,796.198242 
	C712.171265,796.236511 708.618835,796.627747 708.448364,797.427063 
	C707.772278,800.597229 707.977417,804.012451 708.330261,807.285828 
	C708.385681,807.799866 710.886780,808.348755 712.265381,808.371216 
	C719.073059,808.482300 725.883545,808.421814 733.508606,808.421814 
	C733.508606,811.928101 733.508606,815.003784 733.423401,818.511963 
z"/>
<path fill="#BB3B3A" opacity="1.000000" stroke="none" 
	d="
M373.018951,813.000000 
	C373.018982,803.530640 373.018982,794.561218 373.018982,785.144653 
	C386.631439,785.144653 399.979126,785.144653 413.308044,785.144653 
	C413.518890,785.456970 413.835663,785.712402 413.860168,785.993347 
	C414.747314,796.155762 414.743530,796.144104 404.765289,796.144592 
	C398.775177,796.144836 392.785034,796.185120 386.795044,796.225891 
	C386.484100,796.228088 386.174347,796.403381 385.860901,796.498535 
	C385.671051,796.759644 385.342865,797.007507 385.318024,797.282715 
	C384.311523,808.428711 384.315033,808.419373 395.363770,808.444885 
	C399.855011,808.455261 404.346436,808.501404 408.836853,808.582031 
	C409.289795,808.590149 409.736450,808.949951 410.382996,809.232666 
	C410.382996,812.608337 410.382996,816.012695 410.382996,819.992676 
	C402.027863,819.992676 393.960022,819.992676 385.509644,819.992676 
	C385.509644,824.421448 385.509644,828.275635 385.509644,832.771423 
	C395.306396,832.771423 404.861542,832.771423 414.088348,832.771423 
	C414.557892,833.687927 414.817505,833.966919 414.833771,834.259521 
	C415.391876,844.280457 415.388611,844.277039 405.543304,844.272949 
	C394.929810,844.268616 384.316345,844.271973 373.018921,844.271973 
	C373.018921,833.691162 373.018921,823.595581 373.018951,813.000000 
z"/>
<path fill="#BA3C3B" opacity="1.000000" stroke="none" 
	d="
M241.860840,836.152161 
	C241.862396,838.913635 241.862396,841.206909 241.862396,844.277893 
	C239.092545,844.277893 236.839966,844.277832 234.587387,844.277832 
	C224.435455,844.277710 214.283463,844.262268 204.131607,844.289246 
	C201.818848,844.295410 199.862518,844.290100 199.876709,841.015747 
	C199.956558,822.560425 199.915237,804.104614 199.915237,785.172241 
	C213.571213,785.172241 226.931961,785.172241 240.620697,785.172241 
	C240.620697,788.483704 240.620697,791.900696 240.620697,796.132385 
	C234.108139,796.132385 227.532104,796.058228 220.958344,796.149414 
	C210.616119,796.292847 212.236130,794.442505 212.023438,805.116699 
	C212.007339,805.924438 212.156555,806.735535 212.291321,808.242798 
	C220.431000,808.242798 228.469391,808.242798 236.840652,808.242798 
	C236.840652,812.489136 236.840652,816.021362 236.840652,820.105896 
	C230.318710,820.105896 224.023727,820.394836 217.770187,820.010071 
	C213.169449,819.726929 211.347672,821.193176 211.962128,825.819885 
	C212.237244,827.891479 212.008667,830.029968 212.008667,832.754333 
	C221.091217,832.754333 229.533997,832.762085 237.976730,832.748718 
	C240.038635,832.745422 242.186066,832.559204 241.860840,836.152161 
z"/>
<path fill="#BB3B3A" opacity="1.000000" stroke="none" 
	d="
M982.999512,784.697632 
	C989.454834,784.697510 995.410217,784.697510 1001.637329,784.697510 
	C1001.637329,788.680298 1001.637329,792.078064 1001.637329,796.039795 
	C992.151672,796.039795 982.909668,796.039795 973.356201,796.039795 
	C973.356201,800.330444 973.356201,804.063354 973.356201,808.434570 
	C981.594055,808.434570 989.667969,808.434570 997.991821,808.434570 
	C997.991821,812.501038 997.991821,815.933350 997.991821,819.991150 
	C989.749329,819.991150 981.683228,819.991150 973.332275,819.991150 
	C973.332275,824.503113 973.332275,828.390869 973.332275,832.811707 
	C983.196899,832.811707 992.779968,832.811707 1002.632507,832.811707 
	C1002.632507,836.747803 1002.632507,840.151489 1002.632507,843.916565 
	C988.799072,843.916565 975.238220,843.916565 961.319824,843.916565 
	C961.319824,824.359680 961.319824,804.945007 961.319824,784.697754 
	C968.338318,784.697754 975.419006,784.697754 982.999512,784.697632 
z"/>
<path fill="#BB3F3F" opacity="1.000000" stroke="none" 
	d="
M766.282410,786.138184 
	C775.333435,782.842651 783.889038,783.310486 792.462219,786.646667 
	C796.075134,788.052551 797.108215,789.854797 795.056702,793.355652 
	C793.898865,795.331726 793.221924,797.589661 792.084229,800.302734 
	C782.168640,794.270569 772.682068,792.891418 765.197144,803.310303 
	C760.212952,810.248108 760.892822,820.807556 766.065918,827.154846 
	C771.852173,834.254211 779.023926,834.827515 793.306763,829.090820 
	C794.773315,832.325562 796.252441,835.588013 797.907288,839.238159 
	C788.242676,846.070435 777.990601,846.826599 767.526489,842.807373 
	C755.770813,838.291931 749.795349,829.068970 749.292664,816.629333 
	C748.755188,803.328491 753.164001,792.447327 766.282410,786.138184 
z"/>
<path fill="#BB3D3C" opacity="1.000000" stroke="none" 
	d="
M472.491089,834.005554 
	C472.694244,834.346985 472.897400,834.688477 473.076691,835.750732 
	C473.000732,837.860596 472.948578,839.249634 472.896454,840.638611 
	C472.896454,840.638611 472.788025,840.876160 472.289734,840.912720 
	C468.861847,842.033936 465.932281,843.118713 463.002747,844.203491 
	C462.239227,844.418823 461.475708,844.634155 460.061829,844.564819 
	C457.972626,844.434509 456.533813,844.588989 455.095001,844.743408 
	C454.309296,844.758606 453.523590,844.773865 452.252380,844.328613 
	C448.374481,842.957397 444.982086,842.046631 441.589722,841.135864 
	C428.705750,834.608276 423.233887,819.154663 428.156952,803.199036 
	C432.352997,789.599609 445.515106,781.980042 460.942200,784.221130 
	C461.271576,784.268982 461.597961,784.337097 461.925903,784.394958 
	C474.207581,786.565430 475.273865,788.790344 468.909912,800.159485 
	C463.376038,796.753906 457.236145,793.606628 450.879089,796.764099 
	C447.095123,798.643494 444.283020,802.479492 440.459167,805.797119 
	C435.982452,811.088501 437.451508,822.217834 442.635498,827.000610 
	C443.031830,827.372253 443.428192,827.743958 444.017639,828.451538 
	C444.210754,828.787537 444.158081,828.757935 444.158081,828.757935 
	C444.601746,829.078857 445.045410,829.399780 445.815094,830.396423 
	C447.617218,831.661011 449.093323,832.249939 450.569397,832.838867 
	C451.527130,832.918640 452.484833,832.998474 453.997528,833.408020 
	C455.654663,833.654602 456.756866,833.571472 457.859039,833.488403 
	C459.201569,833.260620 460.544098,833.032776 462.693604,832.880859 
	C464.667114,832.309204 465.833649,831.661499 467.000214,831.013855 
	C467.000214,831.013855 467.202271,830.758972 467.719025,830.855957 
	C469.654205,831.970520 471.072632,832.988037 472.491089,834.005554 
z"/>
<path fill="#BB3D3C" opacity="1.000000" stroke="none" 
	d="
M645.410645,784.620361 
	C657.627625,784.619751 669.383606,784.619751 681.376587,784.619751 
	C681.376587,788.661011 681.376587,792.075134 681.376587,796.145264 
	C679.023071,796.145264 676.924744,796.124939 674.826965,796.148926 
	C666.616394,796.242676 667.223694,794.877747 667.185303,803.989014 
	C667.136963,815.464478 667.180908,826.940369 667.184875,838.416077 
	C667.185486,840.220703 667.184937,842.025269 667.184937,844.128235 
	C663.148193,844.128235 659.569641,844.128235 655.438416,844.128235 
	C655.328735,841.872864 655.144409,839.787048 655.139587,837.700745 
	C655.111572,825.559937 654.957336,813.415283 655.216919,801.279907 
	C655.307922,797.029358 653.889954,795.633667 649.798340,796.098633 
	C647.186951,796.395447 644.514343,796.154236 641.971619,796.154236 
	C639.799316,788.327576 640.654785,785.222107 645.410645,784.620361 
z"/>
<path fill="#BB3D3C" opacity="1.000000" stroke="none" 
	d="
M332.223419,805.078064 
	C332.126678,794.434631 332.942169,796.340149 323.686951,796.154175 
	C322.205292,796.124390 320.722504,796.149963 318.805176,796.149963 
	C318.805176,792.319946 318.805176,788.801147 318.805176,784.936218 
	C332.103424,784.936218 345.321960,784.936218 358.677002,784.936218 
	C358.677002,788.642761 358.677002,792.068420 358.677002,795.987671 
	C354.018738,795.987671 349.597351,795.987671 344.530426,795.987671 
	C344.530426,812.166809 344.530426,827.867554 344.530426,844.397644 
	C340.846741,844.397644 337.701904,844.783630 334.751434,844.195068 
	C333.671082,843.979614 332.358246,841.465027 332.332367,839.978699 
	C332.132690,828.510681 332.222992,817.037537 332.223419,805.078064 
z"/>
<path fill="#BB3F3F" opacity="1.000000" stroke="none" 
	d="
M597.831299,798.000000 
	C597.831177,816.097839 597.831177,833.695618 597.831177,851.637817 
	C594.086670,851.637817 590.868652,851.637817 587.335571,851.637817 
	C587.335571,826.213928 587.335571,800.998901 587.335571,775.342407 
	C590.541809,775.342407 593.760071,775.342407 597.831360,775.342407 
	C597.831360,782.673767 597.831360,790.086853 597.831299,798.000000 
z"/>
<path fill="#1F2750" opacity="1.000000" stroke="none" 
	d="
M451.984650,704.149353 
	C450.636841,707.624695 449.656342,711.304871 447.857788,714.528748 
	C444.936157,719.765686 441.079224,724.507385 438.444672,729.865051 
	C437.392303,732.005188 438.538055,735.226318 438.769653,738.353882 
	C434.298401,739.615417 433.210907,736.535095 433.283447,733.191528 
	C433.430573,726.409851 434.045288,719.637939 434.487030,712.863281 
	C434.731079,709.119995 435.015106,705.379272 435.360474,700.520508 
	C422.577942,701.675598 410.581848,702.759583 398.210663,703.787109 
	C398.948395,702.825195 400.001343,701.225708 401.183533,701.123657 
	C411.146881,700.263672 421.127106,699.416748 431.117645,699.156494 
	C434.436462,699.070007 437.768402,700.871948 441.151794,701.501953 
	C444.765778,702.174744 448.666443,703.401611 451.561707,699.078125 
	C451.996155,700.071838 452.065430,701.142456 451.869080,702.647217 
	C451.730499,703.437317 451.857574,703.793335 451.984650,704.149353 
z"/>
<path fill="#87292E" opacity="1.000000" stroke="none" 
	d="
M452.024597,540.555298 
	C452.892517,546.703369 448.906799,550.521851 446.584808,554.929749 
	C442.929169,561.869446 436.392303,567.346252 436.022339,576.321228 
	C435.095184,575.029907 434.146667,573.352417 433.075134,571.335693 
	C433.685516,560.945679 434.418854,550.894958 435.183167,540.387573 
	C438.279602,539.918152 441.380646,539.601990 444.402924,539.956970 
	C450.301941,540.649719 451.148560,540.166199 451.012177,534.219788 
	C450.818481,525.776184 450.424805,517.337158 450.035583,508.489136 
	C450.667297,509.463348 451.970337,510.833252 451.997223,512.227783 
	C452.176239,521.511780 452.082458,530.800964 452.024597,540.555298 
z"/>
<path fill="#1F2750" opacity="1.000000" stroke="none" 
	d="
M452.010620,696.559509 
	C451.612122,691.631592 451.100037,686.242859 451.064728,680.851074 
	C451.035980,676.460266 451.711304,671.998901 445.480804,671.358643 
	C445.290436,671.339111 445.186676,670.476685 445.023987,669.636902 
	C447.053406,669.521179 449.101379,669.775757 451.519531,670.130371 
	C451.960846,678.852722 452.031982,687.475037 452.010620,696.559509 
z"/>
<path fill="#BB3F3F" opacity="1.000000" stroke="none" 
	d="
M442.570923,826.654175 
	C437.451508,822.217834 435.982452,811.088501 440.245880,806.075928 
	C438.247375,813.044739 438.487885,819.852844 442.570923,826.654175 
z"/>
<path fill="#F4F4F4" opacity="1.000000" stroke="none" 
	d="
M466.144318,577.066162 
	C472.014465,575.867432 478.102631,574.974731 484.599091,574.172363 
	C482.549042,575.174133 480.154297,576.527100 477.617340,576.892456 
	C473.919312,577.424988 470.119049,577.247131 466.144318,577.066162 
z"/>
<path fill="#BB3F3F" opacity="1.000000" stroke="none" 
	d="
M441.826935,841.400635 
	C444.982086,842.046631 448.374481,842.957397 451.881958,844.188354 
	C448.686096,843.560852 445.375122,842.613098 441.826935,841.400635 
z"/>
<path fill="#BB3F3F" opacity="1.000000" stroke="none" 
	d="
M463.351288,844.266663 
	C465.932281,843.118713 468.861847,842.033936 472.159210,840.908875 
	C469.584595,842.022278 466.642212,843.176025 463.351288,844.266663 
z"/>
<path fill="#BB3F3F" opacity="1.000000" stroke="none" 
	d="
M472.488678,833.685120 
	C471.072632,832.988037 469.654205,831.970520 467.876495,830.896606 
	C468.325897,830.153931 469.134583,829.467651 470.204865,828.559326 
	C471.104004,830.453186 471.795135,831.908936 472.488678,833.685120 
z"/>
<path fill="#F4F4F4" opacity="1.000000" stroke="none" 
	d="
M498.858948,571.871338 
	C500.368378,571.182556 502.307587,570.550293 504.627594,569.969177 
	C504.712585,575.486145 500.996460,570.695862 498.858948,571.871338 
z"/>
<path fill="#BB3F3F" opacity="1.000000" stroke="none" 
	d="
M455.356171,844.896606 
	C456.533813,844.588989 457.972626,844.434509 459.661621,844.488159 
	C458.480316,844.814087 457.048828,844.931946 455.356171,844.896606 
z"/>
<path fill="#BB3F3F" opacity="1.000000" stroke="none" 
	d="
M450.355042,832.575684 
	C449.093323,832.249939 447.617218,831.661011 446.068634,830.722534 
	C447.377686,831.019531 448.759186,831.666016 450.355042,832.575684 
z"/>
<path fill="#BB3F3F" opacity="1.000000" stroke="none" 
	d="
M473.194092,840.519775 
	C472.948578,839.249634 473.000732,837.860596 473.092102,836.051697 
	C473.251526,837.221497 473.371643,838.811218 473.194092,840.519775 
z"/>
<path fill="#F4F4F4" opacity="1.000000" stroke="none" 
	d="
M410.712646,668.468262 
	C409.253937,668.783630 407.553894,668.892700 405.431183,668.934143 
	C406.829437,668.664978 408.650360,668.463440 410.712646,668.468262 
z"/>
<path fill="#BB3F3F" opacity="1.000000" stroke="none" 
	d="
M466.652405,831.019409 
	C465.833649,831.661499 464.667114,832.309204 463.101868,832.923157 
	C463.903656,832.267944 465.104126,831.646484 466.652405,831.019409 
z"/>
<path fill="#BB3F3F" opacity="1.000000" stroke="none" 
	d="
M457.494202,833.382202 
	C456.756866,833.571472 455.654663,833.654602 454.330200,833.554382 
	C455.115082,833.339355 456.122223,833.307678 457.494202,833.382202 
z"/>
<path fill="#F4F4F4" opacity="1.000000" stroke="none" 
	d="
M488.833618,573.867798 
	C489.376312,573.491577 490.311981,573.173584 491.620483,572.928162 
	C491.071014,573.309143 490.148804,573.617554 488.833618,573.867798 
z"/>
<path fill="#F4F4F4" opacity="1.000000" stroke="none" 
	d="
M494.727997,572.805908 
	C494.996552,572.441833 495.638062,572.146973 496.641357,571.909180 
	C496.369080,572.269226 495.735016,572.572205 494.727997,572.805908 
z"/>
<path fill="#CECECE" opacity="1.000000" stroke="none" 
	d="
M452.247528,704.089966 
	C451.857574,703.793335 451.730499,703.437317 451.860382,703.051392 
	C452.466888,702.978271 452.724854,703.111816 452.957031,703.642761 
	C452.852051,703.919128 452.681213,703.974854 452.247528,704.089966 
z"/>
<path fill="#BB3F3F" opacity="1.000000" stroke="none" 
	d="
M444.236237,828.778259 
	C444.158081,828.757935 444.210754,828.787537 444.216980,828.809692 
	C444.223236,828.831909 444.314392,828.798584 444.236237,828.778259 
z"/>
<path fill="#CECECE" opacity="1.000000" stroke="none" 
	d="
M452.433533,697.933167 
	C452.210419,697.849182 452.144623,697.665466 452.171326,697.204102 
	C452.372833,697.228821 452.481842,697.531067 452.433533,697.933167 
z"/>
<path fill="#FEFDFC" opacity="1.000000" stroke="none" 
	d="
M911.435669,662.415283 
	C895.301453,679.847900 875.812683,684.963867 853.904907,677.816101 
	C832.195801,670.733093 819.433838,654.754944 816.131531,632.323853 
	C812.452881,607.337463 820.909119,586.596558 842.717651,573.235596 
	C876.558594,552.503052 920.405151,574.933655 925.045837,614.539368 
	C927.133301,632.354797 922.975708,648.202087 911.435669,662.415283 
z"/>
<path fill="#FCF5F3" opacity="1.000000" stroke="none" 
	d="
M227.932312,619.933044 
	C228.097290,620.269775 228.262253,620.606506 228.347198,621.551208 
	C228.825073,623.102234 229.382965,624.045349 229.940857,624.988403 
	C229.940872,624.988403 230.005951,625.017517 229.963318,625.379395 
	C230.308289,626.473511 230.695908,627.205627 231.083527,627.937805 
	C231.083527,627.937805 231.318329,628.278870 231.165039,628.795837 
	C229.996826,629.900024 228.981918,630.487244 227.966995,631.074463 
	C221.044739,625.739563 214.122498,620.404724 206.902863,614.840698 
	C198.063782,621.796936 189.359100,628.647400 180.654419,635.497864 
	C180.376465,635.328613 180.098511,635.159363 179.820557,634.990112 
	C183.331161,626.264160 186.461792,617.356628 190.508667,608.886902 
	C192.611374,604.485962 191.195023,602.906311 187.705734,600.736389 
	C179.571533,595.677795 171.699799,590.197327 163.987900,583.906860 
	C173.169800,584.588501 182.377426,585.037170 191.523117,586.046814 
	C196.325500,586.576904 198.657181,585.588745 199.654053,580.340881 
	C201.412262,571.084961 204.098358,562.005310 207.357285,552.712524 
	C208.494553,556.917297 209.677155,561.110535 210.757156,565.329956 
	C211.994843,570.165344 213.567307,574.967896 214.215881,579.887390 
	C214.962753,585.552490 217.700806,586.711182 222.963867,586.055115 
	C231.864899,584.945496 240.852646,584.531372 250.325928,584.829712 
	C243.538864,589.327087 236.674683,593.713928 230.000870,598.373474 
	C227.141220,600.370056 224.677505,602.933777 221.855774,605.767334 
	C222.101562,606.852478 222.525482,607.410156 222.949402,607.967834 
	C222.949387,607.967834 223.131302,608.359253 223.182861,608.823853 
	C223.453552,609.539978 223.672668,609.791443 223.891800,610.042969 
	C223.891800,610.042969 223.965317,610.075623 223.936554,610.272888 
	C223.955338,610.698669 224.078568,610.874023 224.277496,610.996216 
	C224.493439,611.428223 224.709381,611.860168 224.958832,613.008789 
	C225.588425,614.817444 226.184540,615.909424 226.780640,617.001404 
	C226.938843,617.354675 227.097046,617.708008 227.262878,618.607239 
	C227.491119,619.413147 227.711716,619.673096 227.932312,619.933044 
z"/>
<path fill="#CECECE" opacity="1.000000" stroke="none" 
	d="
M228.091278,631.381775 
	C228.981918,630.487244 229.996826,629.900024 231.213257,628.997192 
	C232.411621,630.768372 233.408478,632.855103 234.405334,634.941895 
	C234.061356,635.183777 233.717377,635.425720 233.373398,635.667664 
	C231.654114,634.341492 229.934830,633.015320 228.091278,631.381775 
z"/>
<path fill="#CECECE" opacity="1.000000" stroke="none" 
	d="
M226.800446,616.680542 
	C226.184540,615.909424 225.588425,614.817444 225.021622,613.369202 
	C225.640701,614.128540 226.230484,615.244080 226.800446,616.680542 
z"/>
<path fill="#CECECE" opacity="1.000000" stroke="none" 
	d="
M229.982132,624.659973 
	C229.382965,624.045349 228.825073,623.102234 228.408875,621.826172 
	C229.041519,622.439331 229.532455,623.385437 229.982132,624.659973 
z"/>
<path fill="#CECECE" opacity="1.000000" stroke="none" 
	d="
M222.998657,607.674927 
	C222.525482,607.410156 222.101562,606.852478 221.901947,606.129395 
	C222.433487,606.436646 222.740707,606.909302 222.998657,607.674927 
z"/>
<path fill="#CECECE" opacity="1.000000" stroke="none" 
	d="
M231.106354,627.613525 
	C230.695908,627.205627 230.308289,626.473511 229.948517,625.411865 
	C230.360641,625.818054 230.744904,626.553589 231.106354,627.613525 
z"/>
<path fill="#CECECE" opacity="1.000000" stroke="none" 
	d="
M227.964539,619.676270 
	C227.711716,619.673096 227.491119,619.413147 227.325806,618.891479 
	C227.586319,618.893066 227.791534,619.156250 227.964539,619.676270 
z"/>
<path fill="#CECECE" opacity="1.000000" stroke="none" 
	d="
M223.914810,609.776306 
	C223.672668,609.791443 223.453552,609.539978 223.226410,609.035278 
	C223.458191,609.024597 223.697998,609.267090 223.914810,609.776306 
z"/>
<path fill="#CECECE" opacity="1.000000" stroke="none" 
	d="
M224.346451,610.822571 
	C224.078568,610.874023 223.955338,610.698669 223.913376,610.305786 
	C224.197586,610.200012 224.363068,610.369202 224.346451,610.822571 
z"/>
<path fill="#FEFCFC" opacity="1.000000" stroke="none" 
	d="
M696.870972,577.312073 
	C717.988464,595.629089 720.673340,618.831421 713.912964,644.094971 
	C710.310120,657.558960 700.808960,666.521423 687.978699,672.892151 
	C686.486755,673.577942 685.597717,674.091675 684.708679,674.605347 
	C684.708679,674.605347 684.817383,674.545349 684.365234,674.554932 
	C674.426514,675.957092 664.970276,677.640503 655.442200,678.637390 
	C649.355408,679.274170 643.162415,678.895569 637.017029,678.972290 
	C637.017029,678.972229 637.004822,679.002441 636.819153,678.623169 
	C636.486023,676.439758 636.213318,674.635925 636.209595,672.831482 
	C636.136658,637.895996 636.095215,602.960388 636.047302,568.024841 
	C636.047302,568.024841 635.990906,568.018005 636.201416,567.892456 
	C636.656982,567.549255 636.850647,567.292786 636.992859,566.997498 
	C636.992859,566.997498 637.000000,567.000000 637.464294,567.063721 
	C655.054199,567.158325 672.337952,565.666504 688.766296,572.408875 
	C688.766296,572.408875 688.832031,572.278076 688.930420,572.604187 
	C691.642822,574.390930 694.256897,575.851501 696.870972,577.312073 
z"/>
<path fill="#BB3F3F" opacity="1.000000" stroke="none" 
	d="
M635.666016,568.089478 
	C636.095215,602.960388 636.136658,637.895996 636.209595,672.831482 
	C636.213318,674.635925 636.486023,676.439758 636.831299,678.610718 
	C634.517578,678.994446 632.693176,678.610107 633.681335,675.246460 
	C634.181152,673.545410 633.988464,671.620361 633.989441,669.796448 
	C634.004333,640.647522 633.942810,611.498413 634.057556,582.349976 
	C634.076233,577.616455 634.856506,572.886047 635.666016,568.089478 
z"/>
<path fill="#BB3F3F" opacity="1.000000" stroke="none" 
	d="
M637.079102,679.349609 
	C643.162415,678.895569 649.355408,679.274170 655.442200,678.637390 
	C664.970276,677.640503 674.426514,675.957092 684.303223,674.555542 
	C683.390076,675.558899 682.204590,677.204468 680.763062,677.472412 
	C674.975830,678.548157 669.131531,679.494995 663.266785,679.931458 
	C655.223450,680.530090 647.143127,680.650513 639.075928,680.875732 
	C638.442139,680.893494 637.786560,680.128296 637.079102,679.349609 
z"/>
<path fill="#BB3F3F" opacity="1.000000" stroke="none" 
	d="
M688.689331,572.052429 
	C672.337952,565.666504 655.054199,567.158325 637.463745,567.061523 
	C637.724121,566.664307 638.455566,566.031433 639.173645,566.046326 
	C652.609558,566.324768 666.060425,566.407959 679.466309,567.221802 
	C682.593933,567.411621 685.567749,570.137146 688.689331,572.052429 
z"/>
<path fill="#BB3F3F" opacity="1.000000" stroke="none" 
	d="
M696.881836,576.935425 
	C694.256897,575.851501 691.642822,574.390930 688.864502,572.635986 
	C691.431030,573.747375 694.161865,575.153076 696.881836,576.935425 
z"/>
<path fill="#BB3F3F" opacity="1.000000" stroke="none" 
	d="
M685.066040,674.728577 
	C685.597717,674.091675 686.486755,673.577942 687.695068,673.087097 
	C687.150696,673.690552 686.287109,674.271179 685.066040,674.728577 
z"/>
<path fill="#BB3F3F" opacity="1.000000" stroke="none" 
	d="
M636.761230,567.101135 
	C636.850647,567.292786 636.656982,567.549255 636.219482,567.914429 
	C636.194519,567.776306 636.362061,567.490540 636.761230,567.101135 
z"/>
<path fill="#FFFFFF" opacity="1.000000" stroke="none" 
	d="
M340.008545,632.009766 
	C336.626221,632.611938 333.243896,633.214172 328.999512,633.969849 
	C328.999512,629.824524 329.000000,626.077881 328.999451,622.331238 
	C328.998474,615.669250 329.118195,609.004089 328.943115,602.346680 
	C328.858795,599.140076 329.767914,597.173523 334.007446,596.949341 
	C345.727844,595.220825 356.612793,593.137878 367.595306,591.980652 
	C383.536865,590.300842 399.532867,589.009644 415.536713,588.096130 
	C425.326965,587.537354 435.175293,587.995911 444.997559,587.997559 
	C449.035187,588.729004 453.239227,589.297852 452.014343,596.064209 
	C452.002106,605.363953 451.986816,613.774353 451.555298,622.134705 
	C445.795197,621.428406 440.451294,620.772095 434.634521,620.080933 
	C418.042786,621.436829 401.861603,622.333679 385.823120,624.360107 
	C370.474457,626.299377 355.274078,629.412537 340.008545,632.009766 
z"/>
<path fill="#FFFEFE" opacity="1.000000" stroke="none" 
	d="
M435.034119,654.894897 
	C435.295105,654.427185 435.556061,653.959473 435.942902,652.889160 
	C437.001740,650.726196 437.922028,649.158142 438.869659,647.606750 
	C443.262482,640.415161 447.662903,633.228271 452.442139,625.981079 
	C454.694092,625.284851 456.527710,624.256836 458.441040,624.076965 
	C467.166962,623.256836 475.933624,622.855103 484.651428,621.966980 
	C499.317108,620.473022 513.640686,617.410950 527.170166,611.354614 
	C530.567810,609.833679 533.739258,607.807495 537.014648,606.013489 
	C539.619995,604.744568 542.226624,603.478333 544.830078,602.205627 
	C546.236877,601.517944 547.638245,600.819092 549.958862,599.672180 
	C549.958862,611.139465 550.054993,621.693848 549.842529,632.242004 
	C549.814636,633.626953 548.206604,634.980042 546.796143,636.714478 
	C513.671021,649.657166 480.365265,658.776245 445.017334,658.021973 
	C441.872467,657.804199 438.727600,657.586487 435.296509,656.838135 
	C435.018219,655.836670 435.026184,655.365784 435.034119,654.894897 
z"/>
<path fill="#EAEAEA" opacity="1.000000" stroke="none" 
	d="
M340.012085,632.398438 
	C355.274078,629.412537 370.474457,626.299377 385.823120,624.360107 
	C401.861603,622.333679 418.042786,621.436829 434.595581,620.531860 
	C434.347900,628.680359 433.666229,636.343140 432.984589,644.005981 
	C430.351288,641.395935 427.624573,638.872498 425.106415,636.155762 
	C421.269043,632.015747 416.921326,628.863037 411.027863,629.037842 
	C401.820526,629.310974 392.688171,629.152832 383.697113,632.624268 
	C378.326965,634.697632 372.003143,634.323853 366.101349,634.991211 
	C359.864258,635.696533 353.631317,636.596191 347.372406,636.881042 
	C344.462830,637.013428 340.771729,637.159241 340.012085,632.398438 
z"/>
<path fill="#EAEAEA" opacity="1.000000" stroke="none" 
	d="
M536.950317,605.656799 
	C533.739258,607.807495 530.567810,609.833679 527.170166,611.354614 
	C513.640686,617.410950 499.317108,620.473022 484.651428,621.966980 
	C475.933624,622.855103 467.166962,623.256836 458.441040,624.076965 
	C456.527710,624.256836 454.694092,625.284851 452.417847,625.592163 
	C451.998474,624.236145 451.985016,623.210449 451.971558,622.184692 
	C451.986816,613.774353 452.002106,605.363953 452.022980,596.487305 
	C453.346802,596.939026 455.027924,597.591858 455.924011,598.818237 
	C461.533905,606.496094 466.327972,613.964294 478.012756,614.425781 
	C487.562225,614.802917 496.290161,612.839661 505.178528,610.729736 
	C513.940979,608.649719 522.502319,605.728088 531.250977,603.579285 
	C532.889587,603.176758 534.995667,604.677612 536.950317,605.656799 
z"/>
<path fill="#EAEAEA" opacity="1.000000" stroke="none" 
	d="
M444.990753,587.602417 
	C435.175293,587.995911 425.326965,587.537354 415.536713,588.096130 
	C399.532867,589.009644 383.536865,590.300842 367.595306,591.980652 
	C356.612793,593.137878 345.727844,595.220825 334.407837,596.934082 
	C335.181458,595.396912 336.032776,592.915771 337.563141,592.382202 
	C346.722931,589.188599 355.539764,585.156433 365.667847,584.794922 
	C377.180145,584.384094 388.610413,581.857178 400.126465,581.314270 
	C411.366272,580.784424 422.675476,581.449036 433.940491,581.918884 
	C436.962036,582.044922 440.001312,583.190002 442.888733,584.256348 
	C443.822998,584.601318 444.298553,586.188354 444.990753,587.602417 
z"/>
<path fill="#EAEAEA" opacity="1.000000" stroke="none" 
	d="
M445.013062,658.405701 
	C480.365265,658.776245 513.671021,649.657166 546.630859,637.041748 
	C546.812622,638.096741 547.025513,639.656067 546.376770,640.214294 
	C538.911926,646.637878 530.565674,651.282349 520.709900,653.127808 
	C515.708984,654.064270 510.885406,655.911133 505.930450,657.139771 
	C499.698669,658.684998 493.468170,660.355347 487.140259,661.364319 
	C477.782745,662.856323 468.340149,663.815125 458.933441,664.997864 
	C456.982025,665.243164 455.028900,665.475037 452.796600,665.747314 
	C452.322479,664.666199 451.817474,663.514587 451.246765,662.213135 
	C448.501221,662.326355 444.826538,663.883545 445.013062,658.405701 
z"/>
<path fill="#CECECE" opacity="1.000000" stroke="none" 
	d="
M451.555298,622.134705 
	C451.985016,623.210449 451.998474,624.236145 452.036255,625.650818 
	C447.662903,633.228271 443.262482,640.415161 438.869659,647.606750 
	C437.922028,649.158142 437.001740,650.726196 436.030548,652.635864 
	C430.850220,651.809143 433.820892,647.643677 432.994049,644.440063 
	C433.666229,636.343140 434.347900,628.680359 435.068481,620.566650 
	C440.451294,620.772095 445.795197,621.428406 451.555298,622.134705 
z"/>
<path fill="#CECECE" opacity="1.000000" stroke="none" 
	d="
M434.804504,655.058167 
	C435.026184,655.365784 435.018219,655.836670 435.024292,656.659790 
	C434.883881,656.415100 434.729401,655.818298 434.804504,655.058167 
z"/>
<path fill="#1F2750" opacity="1.000000" stroke="none" 
	d="
M441.554382,670.470276 
	C441.589478,670.527283 441.519287,670.413269 441.554382,670.470276 
z"/>
<path fill="#FEFCFC" opacity="1.000000" stroke="none" 
	d="
M275.906189,796.126953 
	C289.052673,796.329407 295.756042,803.344116 295.195618,815.833252 
	C294.645935,828.082458 286.318695,833.582397 269.444763,832.531921 
	C269.444763,820.595276 269.444763,808.627319 269.444763,796.125732 
	C271.555145,796.125732 273.501282,796.125732 275.906189,796.126953 
z"/>
<path fill="#FCF5F3" opacity="1.000000" stroke="none" 
	d="
M1056.068848,810.060608 
	C1057.985229,826.460449 1049.057983,834.247009 1030.018311,832.370422 
	C1030.018311,826.591370 1030.018311,820.689453 1030.018311,814.787598 
	C1030.018311,808.823364 1030.018311,802.859131 1030.018311,797.009949 
	C1042.926270,793.575562 1052.776367,798.491760 1056.068848,810.060608 
z"/>
</svg>