<svg width="1178" height="894" viewBox="0 0 1178 894" fill="none" xmlns="http://www.w3.org/2000/svg">
<g clip-path="url(#clip0_2_2)">
<path d="M1179 712.531C1168.88 713 1158.76 713 1148.1 713C1148.1 685.272 1148.1 657.884 1148.1 630.496C1147.62 630.284 1147.14 630.071 1146.66 629.859C1127.7 656.77 1108.74 683.681 1089.18 711.454C1070.5 685.667 1052.23 660.432 1033.96 635.199C1033.63 635.273 1033.31 635.347 1032.98 635.421C1032.98 661.069 1032.98 686.718 1032.98 712.791C1021.11 712.791 1009.89 712.791 998.228 712.791C998.228 650.845 998.228 588.861 998.228 525.209C1029.13 568.988 1059.18 611.564 1089.68 654.77C1092.76 650.622 1095.44 647.086 1098.04 643.484C1123.86 607.697 1149.65 571.897 1175.47 536.112C1176.33 534.913 1177.37 533.836 1178.66 532.851C1179 592.688 1179 652.375 1179 712.531Z" fill="#BE3835"/>
<path d="M541.785 400.112C541.785 411.241 541.785 422.371 541.785 433.514C477.344 424.962 395.642 365.435 380.049 267.826C362.358 157.08 434.497 58.8964 535.606 36.6984C643.177 13.0817 728.2 75.6402 759.296 139.416C752.487 139.416 745.976 138.723 739.668 139.561C726.817 141.27 718.696 136.55 710.188 126.264C676.883 86.0013 633.117 65.6638 580.878 65.2881C496.083 64.6783 424.221 127.725 412.639 211.974C402.704 284.246 440.509 355.324 505.738 386.979C506.46 387.33 507.289 387.46 508.681 387.998C520.124 392.239 530.954 396.175 541.785 400.112Z" fill="#BE3836"/>
<path d="M962.634 616.399C966.083 667.867 927.892 709.466 880.398 714.902C828.153 720.882 781.74 681.857 778.409 628.981C774.849 572.455 823.903 525.265 880.051 531.204C921.702 535.61 957.046 570.622 962.101 612.477C962.241 613.634 962.434 614.784 962.634 616.399ZM911.675 662.151C922.976 648.202 927.133 632.355 925.046 614.539C920.405 574.934 876.559 552.503 842.718 573.236C820.909 586.597 812.453 607.337 816.132 632.324C819.434 654.755 832.196 670.733 853.905 677.816C875.813 684.964 895.302 679.848 911.675 662.151Z" fill="#BE3836"/>
<path d="M189.329 656.176C188.521 658.136 187.889 660.011 187.88 661.888C187.803 678.691 187.835 695.494 187.835 712.744C175.939 712.744 164.388 712.744 152.433 712.744C152.433 653.142 152.433 593.445 152.433 533.329C153.609 533.178 154.863 532.876 156.116 532.878C175.44 532.895 194.781 532.449 214.08 533.149C231.39 533.776 247.653 538.37 260.626 550.852C275.021 564.701 278.737 582.15 276.982 601.229C275.172 620.902 266.768 636.861 249.23 647.983C262.973 669.494 276.607 690.833 290.889 713.187C281.811 713.187 273.775 712.273 266.032 713.392C253.083 715.264 245.491 710.285 239.258 698.984C231.648 685.185 222.102 672.441 213.133 659.419C211.979 657.743 209.331 656.334 207.275 656.186C201.476 655.768 195.625 656.072 189.329 656.176ZM223.965 610.076C223.965 610.076 223.892 610.043 223.938 609.51C223.698 609.267 223.458 609.025 223.131 608.359C223.131 608.359 222.949 607.968 223.048 607.382C222.741 606.909 222.434 606.437 222.034 605.24C224.678 602.934 227.141 600.37 230.001 598.373C236.675 593.714 243.539 589.327 250.326 584.83C240.853 584.531 231.865 584.945 222.964 586.055C217.701 586.711 214.963 585.552 214.216 579.887C213.567 574.968 211.995 570.165 210.757 565.33C209.677 561.111 208.495 556.917 207.357 552.713C204.098 562.005 201.412 571.085 199.654 580.341C198.657 585.589 196.326 586.577 191.523 586.047C182.378 585.037 173.17 584.588 163.988 583.907C171.7 590.197 179.572 595.678 187.706 600.736C191.195 602.906 192.611 604.486 190.509 608.887C186.462 617.357 183.331 626.264 179.821 634.99C180.099 635.159 180.377 635.329 180.655 635.498C189.359 628.647 198.064 621.797 206.903 614.841C214.123 620.405 221.045 625.74 228.216 631.689C229.935 633.015 231.654 634.341 233.373 635.668C233.717 635.426 234.061 635.184 234.405 634.942C233.409 632.855 232.412 630.768 231.318 628.279C231.318 628.279 231.084 627.938 231.129 627.289C230.745 626.554 230.361 625.818 230.006 625.018C230.006 625.018 229.941 624.988 230.023 624.332C229.533 623.385 229.042 622.439 228.427 620.943C228.262 620.606 228.097 620.27 227.997 619.419C227.792 619.156 227.586 618.893 227.255 618.061C227.097 617.708 226.939 617.355 226.82 616.36C226.231 615.244 225.641 614.129 224.925 612.292C224.709 611.86 224.494 611.428 224.415 610.649C224.363 610.369 224.198 610.2 223.965 610.076Z" fill="#BE3836"/>
<path d="M623 713.187C615.356 713.187 608.212 713.187 600.715 713.187C600.715 653.069 600.715 593.361 600.715 533.232C602.2 533.101 603.622 532.867 605.044 532.869C624.199 532.887 643.37 532.471 662.507 533.096C687.906 533.927 711.259 541.016 729.286 560.012C749.668 581.488 755.916 607.884 753.476 636.634C749.83 679.598 714.354 711.307 669.471 713.047C654.169 713.64 638.825 713.171 623 713.187ZM688.832 572.278C688.832 572.278 688.766 572.409 688.612 571.696C685.568 570.137 682.594 567.412 679.466 567.222C666.06 566.408 652.61 566.325 639.174 566.046C638.456 566.031 637.724 566.664 637 567C637 567 636.993 566.998 636.53 567.205C636.362 567.491 636.195 567.776 635.991 568.018C635.991 568.018 636.047 568.025 635.285 568.154C634.857 572.886 634.076 577.616 634.058 582.35C633.943 611.498 634.004 640.648 633.989 669.796C633.988 671.62 634.181 673.545 633.681 675.246C632.693 678.61 634.518 678.994 637.005 679.002C637.005 679.002 637.017 678.972 637.141 679.727C637.787 680.128 638.442 680.894 639.076 680.876C647.143 680.651 655.223 680.53 663.267 679.931C669.132 679.495 674.976 678.548 680.763 677.472C682.205 677.204 683.39 675.559 684.817 674.545C684.817 674.545 684.709 674.605 685.423 674.852C686.287 674.271 687.151 673.691 688.582 672.72C700.809 666.521 710.31 657.559 713.913 644.095C720.673 618.831 717.988 595.629 696.893 576.559C694.162 575.153 691.431 573.747 688.832 572.278Z" fill="#BF3835"/>
<path d="M731.028 154.291C742.336 154.168 753.645 153.94 764.95 154.072C766.169 154.086 767.91 155.958 768.491 157.351C781.695 189.047 786.27 222.095 782.704 256.134C778.046 300.596 760.732 339.746 730.136 372.332C684.378 421.065 627.679 442.366 561.044 437.01C559.598 436.893 557.852 435.388 557.044 434.048C556.379 432.948 556.898 431.131 556.897 429.632C556.896 420.998 556.897 412.364 556.897 403.116C559.11 403.228 560.86 403.238 562.593 403.415C651.611 412.505 731.647 352.555 747.606 264.415C752.264 238.686 751.159 213.024 743.067 187.211C741.814 183.268 741.002 179.912 739.796 176.704C736.974 169.196 733.963 161.758 731.028 154.291Z" fill="#BD3937"/>
<path d="M33.9285 713.173C24.4758 713.173 15.5154 713.173 6.2627 713.173C6.2627 653.031 6.2627 593.319 6.2627 533.233C43.3237 533.233 80.3537 533.233 117.746 533.233C117.746 544.344 117.746 555.404 117.746 567.117C92.3341 567.117 66.9719 567.117 41.2863 567.117C41.2863 580.988 41.2863 594.214 41.2863 607.943C63.2128 607.943 85.1148 607.943 107.825 607.943C107.825 615.341 107.825 622.265 107.825 629.188C107.825 642.834 107.825 642.827 93.9797 642.82C76.5198 642.812 59.06 642.818 41.127 642.818C41.127 666.268 41.127 689.341 41.127 713.174C38.584 713.174 36.5025 713.174 33.9285 713.173Z" fill="#BE3735"/>
<path d="M730.56 154.191C733.963 161.758 736.974 169.196 739.796 176.704C741.002 179.912 741.814 183.268 742.776 186.902C739.922 187.31 737.098 187.427 734.275 187.427C672.136 187.438 609.997 187.435 547.857 187.436C546.071 187.436 544.284 187.436 542.177 187.436C542.177 200.853 542.177 213.799 542.177 227.134C530.996 227.134 520.136 227.134 509.03 227.134C509.03 202.877 509.03 178.761 509.03 154.242C510.165 154.137 511.434 153.917 512.703 153.916C584.338 153.9 655.972 153.901 727.607 153.91C728.435 153.91 729.264 154.028 730.56 154.191Z" fill="white"/>
<path d="M541.892 399.639C530.954 396.175 520.124 392.239 509.025 388.045C508.757 339.485 508.757 291.182 508.757 242.521C554.999 242.521 600.901 242.521 647.107 242.521C647.107 253.41 647.107 264.342 647.107 275.816C612.211 275.816 577.356 275.816 541.999 275.816C541.999 317.291 541.999 358.228 541.892 399.639Z" fill="white"/>
<path d="M435.214 539.931C424.959 540.351 414.594 539.969 404.471 541.354C380.911 544.576 357.468 548.649 333.979 552.379C332.515 552.612 331.055 552.861 328.161 553.34C328.161 541.594 328.059 530.33 328.332 519.075C328.357 518.055 330.674 516.48 332.129 516.194C364.231 509.893 396.61 506.27 429.37 506.729C436.024 506.822 442.673 507.277 449.72 508.231C450.425 517.337 450.818 525.776 451.012 534.22C451.149 540.166 450.302 540.65 444.403 539.957C441.381 539.602 438.28 539.918 435.214 539.931Z" fill="#BE3836"/>
<path d="M430.528 668.549C435.356 668.683 439.722 668.89 444.565 669.552C445.187 670.477 445.29 671.339 445.481 671.359C451.711 671.999 451.036 676.46 451.065 680.851C451.1 686.243 451.612 691.632 451.918 697.022C451.918 697.022 452.052 696.833 452.065 697.157C452.145 697.665 452.21 697.849 452.276 698.033C452.236 698.201 452.196 698.369 451.676 698.846C448.666 703.402 444.766 702.175 441.152 701.502C437.768 700.872 434.436 699.07 431.118 699.156C421.127 699.417 411.147 700.264 401.184 701.124C400.001 701.226 398.948 702.825 397.836 703.731C375.047 707.347 352.258 710.963 328.511 714.732C328.511 708.819 328.511 702.742 328.511 696.665C328.511 694.005 328.615 691.341 328.495 688.687C327.977 677.283 326.294 678.923 337.915 677.248C359.918 674.075 382.04 671.732 404.983 669.023C407.554 668.893 409.254 668.784 410.954 668.675C417.325 668.657 423.695 668.64 430.528 668.549Z" fill="#262F60"/>
<path d="M453.023 703.863C487.395 705.82 519.814 699.597 550.358 679.633C550.358 691.942 550.446 703.024 550.223 714.1C550.2 715.206 548.487 716.755 547.218 717.289C517.867 729.645 487.491 737.798 455.512 739.095C450.199 739.31 444.869 739.09 439.115 738.514C438.538 735.226 437.392 732.005 438.445 729.865C441.079 724.507 444.936 719.766 447.858 714.529C449.656 711.305 450.637 707.625 452.247 704.09C452.681 703.975 452.852 703.919 453.023 703.863Z" fill="#273061"/>
<path d="M460.422 577.084C452.323 577.104 444.637 577.018 436.476 576.434C436.392 567.346 442.929 561.869 446.585 554.93C448.907 550.522 452.892 546.703 451.972 541.022C453.043 541.383 454.104 542.026 455.187 542.063C486.323 543.151 516.114 538.26 543.309 522.009C545.149 520.909 546.946 519.737 550.127 517.745C550.127 525.569 550.053 532.408 550.142 539.245C550.346 554.8 550.426 554.937 535.541 560.092C525.666 563.512 515.63 566.467 504.956 569.774C502.307 570.55 500.368 571.183 498.429 571.815C498.097 571.765 497.765 571.715 496.856 571.758C495.638 572.147 494.996 572.442 494.355 572.737C493.748 572.719 493.141 572.7 491.891 572.769C490.312 573.174 489.376 573.492 488.441 573.81C487.51 573.855 486.579 573.901 484.919 574.014C478.103 574.975 472.014 575.867 465.926 576.76C464.229 576.833 462.532 576.906 460.422 577.084Z" fill="#BE3936"/>
<path d="M155.503 817.445C163.998 805.729 172.265 794.288 181.328 781.746C181.328 803.247 181.328 823.469 181.328 844.444C178.21 844.444 175.048 844.768 172.022 844.266C170.99 844.094 169.616 841.873 169.571 840.549C169.328 833.46 169.457 826.359 169.457 819.261C169.026 819.083 168.595 818.904 168.164 818.725C162.353 826.829 156.542 834.933 150.214 843.758C144.262 835.643 138.625 827.956 132.132 819.103C132.132 828.121 132.132 835.797 132.132 843.957C127.883 843.957 124.212 843.957 120.207 843.957C120.207 823.791 120.207 803.743 120.207 783.694C120.491 783.513 120.775 783.331 121.06 783.149C130.696 796.693 140.332 810.238 150.372 824.349C152.219 821.853 153.747 819.787 155.503 817.445Z" fill="#BB3F3F"/>
<path d="M880.972 804C880.971 796.704 880.971 789.909 880.971 783.113C881.266 782.978 881.561 782.843 881.856 782.708C891.572 796.435 901.288 810.162 911.436 824.5C921.728 810.325 931.685 796.61 941.643 782.895C941.95 783.041 942.257 783.186 942.565 783.332C942.565 803.494 942.565 823.656 942.565 844.131C938.694 844.131 935.102 844.131 930.919 844.131C930.919 835.454 930.919 826.922 930.919 818.39C930.504 818.231 930.09 818.072 929.676 817.913C923.699 826.327 917.722 834.742 911.308 843.773C905.383 835.68 899.743 827.977 894.103 820.273C893.683 820.332 893.262 820.391 892.841 820.45C892.841 825.63 892.921 830.811 892.824 835.988C892.655 844.964 894.769 844.438 884.282 844.414C883.314 844.411 882.346 844.201 880.972 844.039C880.972 830.759 880.972 817.629 880.972 804Z" fill="#BB3D3C"/>
<path d="M256.986 786.473C257.441 785.59 257.881 784.774 258.302 784.783C267.278 784.983 276.415 784.303 285.19 785.77C299.561 788.171 307.875 800.19 307.768 816.166C307.676 829.912 298.712 841.465 284.781 843.483C275.855 844.775 266.589 843.725 256.963 843.725C256.963 824.847 256.963 805.886 256.986 786.473ZM275.447 796.126C273.501 796.126 271.555 796.126 269.445 796.126C269.445 808.627 269.445 820.595 269.445 832.532C286.319 833.582 294.646 828.082 295.196 815.833C295.756 803.344 289.053 796.329 275.447 796.126Z" fill="#BB3B3A"/>
<path d="M812.299 831.972C812.3 816.168 812.3 800.858 812.3 785.077C816.411 785.077 820.258 785.077 824.564 785.077C824.564 792.617 824.564 800.043 824.564 808.285C832.884 808.285 840.787 808.386 848.677 808.114C849.391 808.09 850.558 805.681 850.601 804.349C850.805 798.041 850.692 791.723 850.692 785C854.654 785 858.365 785 862.451 785C862.451 804.623 862.451 824.16 862.451 844.082C858.617 844.082 854.906 844.082 850.703 844.082C850.703 837.362 850.593 830.906 850.75 824.456C850.828 821.237 849.655 820 846.399 820.074C839.442 820.233 832.48 820.123 824.822 820.123C824.822 828.334 824.822 836.036 824.822 844.44C821.343 844.44 818.556 844.326 815.782 844.473C813.16 844.611 812.179 843.502 812.279 840.958C812.39 838.131 812.3 835.297 812.299 831.972Z" fill="#BB3F3F"/>
<path d="M1032.09 784.609C1037.67 785.049 1042.98 784.759 1047.87 786.061C1062.07 789.847 1070.13 802.834 1068.85 818.759C1067.79 832 1057.07 842.834 1042.88 844.029C1034.82 844.708 1026.65 844.151 1018.24 844.151C1018.24 824.366 1018.24 804.822 1018.24 784.607C1022.74 784.607 1027.18 784.607 1032.09 784.609ZM1056 809.663C1052.78 798.492 1042.93 793.576 1030.02 797.01C1030.02 802.859 1030.02 808.823 1030.02 814.788C1030.02 820.689 1030.02 826.591 1030.02 832.37C1049.06 834.247 1057.99 826.46 1056 809.663Z" fill="#BA3C3B"/>
<path d="M511.052 820.099C507.924 820.099 505.288 820.099 501.984 820.099C501.984 828.211 501.984 835.923 501.984 843.942C497.728 843.942 494.15 843.942 490.152 843.942C490.152 824.437 490.152 805.046 490.152 785.18C493.723 785.18 497.441 785.18 501.786 785.18C501.786 792.602 501.786 800.166 501.786 808.09C510.634 808.09 518.874 808.09 527.701 808.09C527.701 800.61 527.701 793.058 527.701 785.108C531.978 785.108 535.68 785.108 539.728 785.108C539.728 804.592 539.728 823.983 539.728 843.826C535.989 843.826 532.298 843.826 527.993 843.826C527.993 836.061 527.993 828.33 527.993 820.099C522.116 820.099 516.83 820.099 511.052 820.099Z" fill="#BA3C3B"/>
<path d="M733.423 818.512C729.987 819.335 726.644 819.869 723.282 820.074C720.128 820.265 716.932 820.336 713.792 820.048C709.437 819.649 707.488 820.805 707.787 825.721C708.212 832.701 707.865 832.724 714.912 832.727C722.367 832.729 729.822 832.727 736.945 832.727C737.43 833.586 737.71 833.859 737.73 834.149C738.432 844.279 738.429 844.276 728.525 844.274C717.883 844.271 707.241 844.273 696.215 844.273C696.215 824.371 696.215 804.845 696.215 784.952C709.579 784.952 722.82 784.952 736.428 784.952C736.428 788.505 736.428 791.896 736.428 796.142C729.016 796.142 721.596 796.057 714.18 796.198C712.171 796.237 708.619 796.628 708.448 797.427C707.772 800.597 707.977 804.012 708.33 807.286C708.386 807.8 710.887 808.349 712.265 808.371C719.073 808.482 725.884 808.422 733.509 808.422C733.509 811.928 733.509 815.004 733.423 818.512Z" fill="#BB3B3A"/>
<path d="M373.019 813C373.019 803.531 373.019 794.561 373.019 785.145C386.632 785.145 399.979 785.145 413.308 785.145C413.519 785.457 413.836 785.712 413.86 785.993C414.747 796.156 414.744 796.144 404.765 796.145C398.775 796.145 392.785 796.185 386.795 796.226C386.484 796.228 386.174 796.403 385.861 796.499C385.671 796.76 385.343 797.008 385.318 797.283C384.312 808.429 384.315 808.419 395.364 808.445C399.855 808.455 404.347 808.501 408.837 808.582C409.29 808.59 409.737 808.95 410.383 809.233C410.383 812.608 410.383 816.013 410.383 819.993C402.028 819.993 393.96 819.993 385.51 819.993C385.51 824.421 385.51 828.276 385.51 832.771C395.307 832.771 404.862 832.771 414.088 832.771C414.558 833.688 414.818 833.967 414.834 834.26C415.392 844.28 415.389 844.277 405.543 844.273C394.93 844.269 384.316 844.272 373.019 844.272C373.019 833.691 373.019 823.596 373.019 813Z" fill="#BB3B3A"/>
<path d="M241.861 836.152C241.862 838.914 241.862 841.207 241.862 844.278C239.093 844.278 236.84 844.278 234.587 844.278C224.436 844.278 214.284 844.262 204.132 844.289C201.819 844.295 199.863 844.29 199.877 841.016C199.957 822.56 199.915 804.105 199.915 785.172C213.571 785.172 226.932 785.172 240.621 785.172C240.621 788.484 240.621 791.901 240.621 796.132C234.108 796.132 227.532 796.058 220.958 796.149C210.616 796.293 212.236 794.443 212.024 805.117C212.007 805.924 212.157 806.736 212.291 808.243C220.431 808.243 228.469 808.243 236.841 808.243C236.841 812.489 236.841 816.021 236.841 820.106C230.319 820.106 224.024 820.395 217.77 820.01C213.17 819.727 211.348 821.193 211.962 825.82C212.237 827.891 212.009 830.03 212.009 832.754C221.091 832.754 229.534 832.762 237.977 832.749C240.039 832.745 242.186 832.559 241.861 836.152Z" fill="#BA3C3B"/>
<path d="M983 784.698C989.455 784.698 995.41 784.698 1001.64 784.698C1001.64 788.68 1001.64 792.078 1001.64 796.04C992.152 796.04 982.91 796.04 973.356 796.04C973.356 800.33 973.356 804.063 973.356 808.435C981.594 808.435 989.668 808.435 997.992 808.435C997.992 812.501 997.992 815.933 997.992 819.991C989.749 819.991 981.683 819.991 973.332 819.991C973.332 824.503 973.332 828.391 973.332 832.812C983.197 832.812 992.78 832.812 1002.63 832.812C1002.63 836.748 1002.63 840.151 1002.63 843.917C988.799 843.917 975.238 843.917 961.32 843.917C961.32 824.36 961.32 804.945 961.32 784.698C968.338 784.698 975.419 784.698 983 784.698Z" fill="#BB3B3A"/>
<path d="M766.282 786.138C775.333 782.843 783.889 783.31 792.462 786.647C796.075 788.053 797.108 789.855 795.057 793.356C793.899 795.332 793.222 797.59 792.084 800.303C782.169 794.271 772.682 792.891 765.197 803.31C760.213 810.248 760.893 820.808 766.066 827.155C771.852 834.254 779.024 834.828 793.307 829.091C794.773 832.326 796.253 835.588 797.907 839.238C788.243 846.07 777.991 846.827 767.527 842.807C755.771 838.292 749.795 829.069 749.293 816.629C748.755 803.328 753.164 792.447 766.282 786.138Z" fill="#BB3F3F"/>
<path d="M472.491 834.006C472.694 834.347 472.897 834.689 473.077 835.751C473.001 837.861 472.949 839.25 472.896 840.639C472.896 840.639 472.788 840.876 472.29 840.913C468.862 842.034 465.932 843.119 463.003 844.204C462.239 844.419 461.476 844.634 460.062 844.565C457.973 844.435 456.534 844.589 455.095 844.743C454.309 844.759 453.524 844.774 452.252 844.329C448.374 842.957 444.982 842.047 441.59 841.136C428.706 834.608 423.234 819.155 428.157 803.199C432.353 789.6 445.515 781.98 460.942 784.221C461.272 784.269 461.598 784.337 461.926 784.395C474.208 786.565 475.274 788.79 468.91 800.16C463.376 796.754 457.236 793.607 450.879 796.764C447.095 798.644 444.283 802.48 440.459 805.797C435.982 811.089 437.451 822.218 442.635 827.001C443.032 827.372 443.428 827.744 444.018 828.452C444.211 828.788 444.158 828.758 444.158 828.758C444.602 829.079 445.045 829.4 445.815 830.396C447.617 831.661 449.093 832.25 450.569 832.839C451.527 832.919 452.485 832.999 453.997 833.408C455.655 833.655 456.757 833.571 457.859 833.488C459.202 833.261 460.544 833.033 462.694 832.881C464.667 832.309 465.834 831.662 467 831.014C467 831.014 467.202 830.759 467.719 830.856C469.654 831.971 471.073 832.988 472.491 834.006Z" fill="#BB3D3C"/>
<path d="M645.411 784.62C657.628 784.62 669.384 784.62 681.377 784.62C681.377 788.661 681.377 792.075 681.377 796.145C679.023 796.145 676.925 796.125 674.827 796.149C666.616 796.243 667.224 794.878 667.185 803.989C667.137 815.464 667.181 826.94 667.185 838.416C667.185 840.221 667.185 842.025 667.185 844.128C663.148 844.128 659.57 844.128 655.438 844.128C655.329 841.873 655.144 839.787 655.14 837.701C655.111 825.56 654.957 813.415 655.217 801.28C655.308 797.029 653.89 795.634 649.798 796.099C647.187 796.395 644.514 796.154 641.972 796.154C639.799 788.328 640.655 785.222 645.411 784.62Z" fill="#BB3D3C"/>
<path d="M332.223 805.078C332.127 794.435 332.942 796.34 323.687 796.154C322.205 796.124 320.723 796.15 318.805 796.15C318.805 792.32 318.805 788.801 318.805 784.936C332.103 784.936 345.322 784.936 358.677 784.936C358.677 788.643 358.677 792.068 358.677 795.988C354.019 795.988 349.597 795.988 344.53 795.988C344.53 812.167 344.53 827.868 344.53 844.398C340.847 844.398 337.702 844.784 334.751 844.195C333.671 843.98 332.358 841.465 332.332 839.979C332.133 828.511 332.223 817.038 332.223 805.078Z" fill="#BB3D3C"/>
<path d="M597.831 798C597.831 816.098 597.831 833.696 597.831 851.638C594.087 851.638 590.869 851.638 587.335 851.638C587.335 826.214 587.335 800.999 587.335 775.342C590.542 775.342 593.76 775.342 597.831 775.342C597.831 782.674 597.831 790.087 597.831 798Z" fill="#BB3F3F"/>
<path d="M451.985 704.149C450.637 707.625 449.656 711.305 447.858 714.529C444.936 719.766 441.079 724.507 438.445 729.865C437.392 732.005 438.538 735.226 438.77 738.354C434.298 739.615 433.211 736.535 433.283 733.192C433.431 726.41 434.045 719.638 434.487 712.863C434.731 709.12 435.015 705.379 435.361 700.521C422.578 701.676 410.582 702.76 398.211 703.787C398.948 702.825 400.001 701.226 401.184 701.124C411.147 700.264 421.127 699.417 431.118 699.156C434.436 699.07 437.768 700.872 441.152 701.502C444.766 702.175 448.666 703.402 451.562 699.078C451.996 700.072 452.065 701.142 451.869 702.647C451.731 703.437 451.858 703.793 451.985 704.149Z" fill="#1F2750"/>
<path d="M452.025 540.555C452.893 546.703 448.907 550.522 446.585 554.93C442.929 561.869 436.392 567.346 436.022 576.321C435.095 575.03 434.147 573.352 433.075 571.336C433.686 560.946 434.419 550.895 435.183 540.388C438.28 539.918 441.381 539.602 444.403 539.957C450.302 540.65 451.149 540.166 451.012 534.22C450.819 525.776 450.425 517.337 450.036 508.489C450.667 509.463 451.97 510.833 451.997 512.228C452.176 521.512 452.083 530.801 452.025 540.555Z" fill="#87292E"/>
<path d="M452.011 696.56C451.612 691.632 451.1 686.243 451.065 680.851C451.036 676.46 451.711 671.999 445.481 671.359C445.29 671.339 445.187 670.477 445.024 669.637C447.053 669.521 449.101 669.776 451.519 670.13C451.961 678.853 452.032 687.475 452.011 696.56Z" fill="#1F2750"/>
<path d="M442.571 826.654C437.451 822.218 435.982 811.089 440.246 806.076C438.247 813.045 438.488 819.853 442.571 826.654Z" fill="#BB3F3F"/>
<path d="M441.827 841.401C444.982 842.047 448.374 842.957 451.882 844.188C448.686 843.561 445.375 842.613 441.827 841.401Z" fill="#BB3F3F"/>
<path d="M463.351 844.267C465.932 843.119 468.862 842.034 472.159 840.909C469.585 842.022 466.642 843.176 463.351 844.267Z" fill="#BB3F3F"/>
<path d="M472.489 833.685C471.073 832.988 469.654 831.971 467.876 830.897C468.326 830.154 469.135 829.468 470.205 828.559C471.104 830.453 471.795 831.909 472.489 833.685Z" fill="#BB3F3F"/>
<path d="M455.356 844.897C456.534 844.589 457.973 844.435 459.662 844.488C458.48 844.814 457.049 844.932 455.356 844.897Z" fill="#BB3F3F"/>
<path d="M450.355 832.576C449.093 832.25 447.617 831.661 446.069 830.723C447.378 831.02 448.759 831.666 450.355 832.576Z" fill="#BB3F3F"/>
<path d="M473.194 840.52C472.949 839.25 473.001 837.861 473.092 836.052C473.252 837.221 473.372 838.811 473.194 840.52Z" fill="#BB3F3F"/>
<path d="M410.713 668.468C409.254 668.784 407.554 668.893 405.431 668.934C406.829 668.665 408.65 668.463 410.713 668.468Z" fill="#F4F4F4"/>
<path d="M466.652 831.019C465.834 831.661 464.667 832.309 463.102 832.923C463.904 832.268 465.104 831.646 466.652 831.019Z" fill="#BB3F3F"/>
<path d="M457.494 833.382C456.757 833.571 455.655 833.655 454.33 833.554C455.115 833.339 456.122 833.308 457.494 833.382Z" fill="#BB3F3F"/>
<path d="M452.248 704.09C451.858 703.793 451.731 703.437 451.86 703.051C452.467 702.978 452.725 703.112 452.957 703.643C452.852 703.919 452.681 703.975 452.248 704.09Z" fill="#CECECE"/>
<path d="M444.236 828.778C444.158 828.758 444.211 828.788 444.217 828.81C444.223 828.832 444.314 828.799 444.236 828.778Z" fill="#BB3F3F"/>
<path d="M452.434 697.933C452.21 697.849 452.145 697.665 452.171 697.204C452.373 697.229 452.482 697.531 452.434 697.933Z" fill="#CECECE"/>
<path d="M228.091 631.382C228.982 630.487 229.997 629.9 231.213 628.997C232.412 630.768 233.409 632.855 234.405 634.942C234.061 635.184 233.717 635.426 233.373 635.668C231.654 634.341 229.935 633.015 228.091 631.382Z" fill="#CECECE"/>
<path d="M226.801 616.681C226.185 615.909 225.589 614.817 225.022 613.369C225.641 614.129 226.231 615.244 226.801 616.681Z" fill="#CECECE"/>
<path d="M229.982 624.66C229.383 624.045 228.825 623.102 228.409 621.826C229.042 622.439 229.533 623.385 229.982 624.66Z" fill="#CECECE"/>
<path d="M222.999 607.675C222.525 607.41 222.101 606.852 221.902 606.129C222.433 606.437 222.741 606.909 222.999 607.675Z" fill="#CECECE"/>
<path d="M231.106 627.614C230.696 627.206 230.308 626.474 229.948 625.412C230.361 625.818 230.745 626.554 231.106 627.614Z" fill="#CECECE"/>
<path d="M227.964 619.676C227.712 619.673 227.491 619.413 227.326 618.891C227.586 618.893 227.791 619.156 227.964 619.676Z" fill="#CECECE"/>
<path d="M223.915 609.776C223.673 609.791 223.453 609.54 223.226 609.035C223.458 609.025 223.698 609.267 223.915 609.776Z" fill="#CECECE"/>
<path d="M224.346 610.823C224.079 610.874 223.955 610.699 223.913 610.306C224.198 610.2 224.363 610.369 224.346 610.823Z" fill="#CECECE"/>
<path d="M635.666 568.089C636.095 602.96 636.137 637.896 636.21 672.831C636.213 674.636 636.486 676.44 636.831 678.611C634.518 678.994 632.693 678.61 633.681 675.246C634.181 673.545 633.988 671.62 633.989 669.796C634.004 640.648 633.943 611.498 634.058 582.35C634.076 577.616 634.856 572.886 635.666 568.089Z" fill="#BB3F3F"/>
<path d="M637.079 679.35C643.162 678.896 649.355 679.274 655.442 678.637C664.97 677.641 674.427 675.957 684.303 674.556C683.39 675.559 682.205 677.204 680.763 677.472C674.976 678.548 669.132 679.495 663.267 679.931C655.223 680.53 647.143 680.651 639.076 680.876C638.442 680.893 637.787 680.128 637.079 679.35Z" fill="#BB3F3F"/>
<path d="M688.689 572.052C672.338 565.667 655.054 567.158 637.464 567.062C637.724 566.664 638.456 566.031 639.174 566.046C652.61 566.325 666.061 566.408 679.466 567.222C682.594 567.412 685.568 570.137 688.689 572.052Z" fill="#BB3F3F"/>
<path d="M696.882 576.935C694.257 575.852 691.643 574.391 688.865 572.636C691.431 573.747 694.162 575.153 696.882 576.935Z" fill="#BB3F3F"/>
<path d="M685.066 674.729C685.598 674.092 686.487 673.578 687.695 673.087C687.151 673.691 686.287 674.271 685.066 674.729Z" fill="#BB3F3F"/>
<path d="M636.761 567.101C636.851 567.293 636.657 567.549 636.219 567.914C636.194 567.776 636.362 567.491 636.761 567.101Z" fill="#BB3F3F"/>
<path d="M340.009 632.01C336.626 632.612 333.244 633.214 329 633.97C329 629.824 329 626.078 329 622.331C328.999 615.669 329.118 609.004 328.943 602.347C328.859 599.14 329.768 597.173 334.008 596.949C345.728 595.221 356.613 593.138 367.595 591.981C383.537 590.301 399.533 589.01 415.537 588.096C425.327 587.537 435.175 587.996 444.998 587.998C449.035 588.729 453.239 589.298 452.014 596.064C452.002 605.364 451.987 613.774 451.555 622.135C445.795 621.428 440.451 620.772 434.635 620.081C418.043 621.437 401.862 622.334 385.823 624.36C370.475 626.299 355.274 629.413 340.009 632.01Z" fill="white"/>
<path d="M435.034 654.895C435.295 654.427 435.556 653.959 435.943 652.889C437.002 650.726 437.922 649.158 438.87 647.607C443.263 640.415 447.663 633.228 452.442 625.981C454.694 625.285 456.528 624.257 458.441 624.077C467.167 623.257 475.934 622.855 484.651 621.967C499.317 620.473 513.641 617.411 527.17 611.355C530.568 609.834 533.739 607.807 537.015 606.013C539.62 604.745 542.227 603.478 544.83 602.206C546.237 601.518 547.638 600.819 549.959 599.672C549.959 611.139 550.055 621.694 549.843 632.242C549.815 633.627 548.207 634.98 546.796 636.714C513.671 649.657 480.365 658.776 445.017 658.022C441.872 657.804 438.728 657.586 435.297 656.838C435.018 655.837 435.026 655.366 435.034 654.895Z" fill="#FFFEFE"/>
<path d="M451.555 622.135C451.985 623.21 451.998 624.236 452.036 625.651C447.663 633.228 443.262 640.415 438.87 647.607C437.922 649.158 437.002 650.726 436.031 652.636C430.85 651.809 433.821 647.644 432.994 644.44C433.666 636.343 434.348 628.68 435.068 620.567C440.451 620.772 445.795 621.428 451.555 622.135Z" fill="#CECECE"/>
<path d="M434.805 655.058C435.026 655.366 435.018 655.837 435.024 656.66C434.884 656.415 434.729 655.818 434.805 655.058Z" fill="#CECECE"/>
<path d="M441.554 670.47C441.519 670.413 441.589 670.527 441.554 670.47V670.47Z" fill="#1F2750"/>
</g>
<defs>
<clipPath id="clip0_2_2">
<rect width="1178" height="894" fill="white"/>
</clipPath>
</defs>
</svg>
